<svg xmlns="http://www.w3.org/2000/svg" xmlns:xlink="http://www.w3.org/1999/xlink" viewBox="0 0 774 792.851"><defs><style>.cls-1{fill:#eb6bff;opacity:0.46;}.cls-2{fill:#00b596;opacity:0.45;}.cls-3{font-size:33px;font-family:Bauhaus93, "Bauhaus 93";letter-spacing:0.208em;}.cls-4,.cls-6,.cls-8{fill:none;stroke-width:3px;}.cls-4{stroke:#000;stroke-miterlimit:10;}.cls-5,.cls-7,.cls-9{fill:#262626;}.cls-6,.cls-7,.cls-8,.cls-9{stroke:#262626;}.cls-6{stroke-miterlimit:17.781;}.cls-7,.cls-8,.cls-9{stroke-miterlimit:11.339;}.cls-7{stroke-width:3.181px;}.cls-9{stroke-width:4.08px;}.cls-10{fill:#7da6e2;}.cls-11{fill:#545454;}.cls-12{fill:#050a08;}.cls-13{opacity:0.45;}.cls-14{fill:#353535;}.cls-15{fill:#dd5edd;}.cls-16{fill:#131e54;}.cls-17{fill:#1348a5;}.cls-18{fill:#7c1282;}.cls-19{fill:#ba25b3;}.cls-20{fill:#349ff7;}.cls-21{fill:#1e1e1e;}.cls-22{fill:#333;}.cls-23{fill:#2d2d2d;}.cls-24{fill:#3f3f3f;}.cls-25{fill:#072b87;}.cls-26{fill:url(#radial-gradient);}.cls-27{fill:url(#radial-gradient-16);}.cls-28{fill:#fff;}.cls-29{font-size:32px;font-family:CenturyGothic-Bold, Century Gothic;font-weight:700;}</style><radialGradient id="radial-gradient" cx="389.733" cy="480.255" r="21.54" gradientTransform="translate(0 -278.702)" gradientUnits="userSpaceOnUse"><stop offset="0" stop-color="#fff"/><stop offset="0.108" stop-color="#fff" stop-opacity="0.923"/><stop offset="0.328" stop-color="#fff" stop-opacity="0.722"/><stop offset="0.642" stop-color="#fff" stop-opacity="0.399"/><stop offset="1" stop-color="#fff" stop-opacity="0"/></radialGradient><radialGradient id="radial-gradient-16" cx="390.481" cy="479.676" r="5.304" gradientTransform="translate(0 -278.702)" gradientUnits="userSpaceOnUse"><stop offset="0" stop-color="#fff"/><stop offset="0.158" stop-color="#fff" stop-opacity="0.987"/><stop offset="0.288" stop-color="#fff" stop-opacity="0.947"/><stop offset="0.408" stop-color="#fff" stop-opacity="0.88"/><stop offset="0.522" stop-color="#fff" stop-opacity="0.785"/><stop offset="0.632" stop-color="#fff" stop-opacity="0.663"/><stop offset="0.738" stop-color="#fff" stop-opacity="0.512"/><stop offset="0.842" stop-color="#fff" stop-opacity="0.334"/><stop offset="0.942" stop-color="#fff" stop-opacity="0.133"/><stop offset="1" stop-color="#fff" stop-opacity="0"/></radialGradient></defs><g id="Layer_2" data-name="Layer 2"><g id="Layer_1-2" data-name="Layer 1"><circle class="cls-1" cx="20" cy="410.844" r="20"/><circle class="cls-2" cx="757.5" cy="569.344" r="16.5"/><text class="cls-3" transform="translate(143.346 784.601)">THE CULTURAL REUNION</text><line class="cls-4" x1="73" y1="745.344" x2="675.5" y2="746.344"/><line class="cls-4" x1="139" y1="514.345" x2="623.5" y2="514.344"/><path id="path378" class="cls-5" d="M230.786,725.541l4.431-24.149H204.311l10.3-55.5h30.795l4.431-24.038H219.044l10.191-55.5H260.03l4.432-24.148H209.628L175.842,725.541Zm-57.824,2.437,34.673-188.2h59.817l-5.317,29.022h-30.8l-9.415,50.624H252.83L247.4,648.331H216.607L207.3,698.954h30.8l-5.317,29.024Z"/><path id="path382" class="cls-5" d="M303.564,725.541,363.493,542.21H339.566l-32.9,100.472,4.209-100.472H286.726l-7.533,183.331Zm-26.918,2.437,7.754-188.2h29.023l-3.545,85.3,27.915-85.3h29.023L305.668,726.98l-.221,1h-28.8Z"/><path id="path386" class="cls-5" d="M350.2,727.978l34.672-188.206H413.9L379.223,727.978Z"/><path id="path390" class="cls-5" d="M377.118,725.541,410.9,542.21H386.866L353.08,725.541Z"/><path id="path410" class="cls-5" d="M666.68,725.541l4.432-24.149H618.051L647.406,542.21H623.368L589.582,725.541Zm-80.088,2.437,34.672-188.2h29.023L620.931,698.954H674.1l-5.427,29.024Z"/><path id="path378-1" class="cls-5" d="M236.994,722.276l4.431-24.149H210.519l10.3-55.5h30.8l4.43-24.038H225.252l10.191-55.5h30.795l4.431-24.148H215.836L182.05,722.276Zm-57.824,2.438,34.672-188.206H273.66l-5.318,29.023H237.547l-9.415,50.624h30.906l-5.428,28.912h-30.8L213.51,695.69h30.8l-5.317,29.024Z"/><path id="path382-7" class="cls-5" d="M310.466,721.652,370.4,538.321H346.467l-32.9,100.472,4.209-100.472H293.628L286.1,721.652Zm-26.919,2.437L291.3,535.884h29.022l-3.544,85.3,27.915-85.3h29.022L312.57,723.092l-.221,1h-28.8Z"/><path id="path390-8" class="cls-6" d="M384.966,720.332,418.752,537H394.715L360.928,720.332Z"/><path id="path382-0" class="cls-5" d="M450.6,724.986l59.929-183.331H486.6L453.7,642.127l4.209-100.472H433.761l-7.533,183.331Zm-26.919,2.437,7.755-188.205h29.022l-3.544,85.3,27.915-85.3H513.85L452.7,726.425l-.222,1h-28.8Z"/><path id="path382-7-7" class="cls-5" d="M457.5,721.1l59.929-183.331H493.5L460.6,638.238l4.209-100.472H440.662L433.13,721.1Zm-26.918,2.437,7.754-188.205h29.023l-3.544,85.3,27.914-85.3h29.023L459.605,722.537l-.222,1h-28.8Z"/><path id="path1524" class="cls-7" d="M491.339,726.652c.12-.638,6.264-33.993,13.653-74.121s13.708-73.973,14.042-75.211a51.218,51.218,0,0,1,16.387-25.441,48.952,48.952,0,0,1,20.287-10.764,40.638,40.638,0,0,1,12.27-1.189,31.728,31.728,0,0,1,14.969,3.724,32.445,32.445,0,0,1,14.161,14.2,37.2,37.2,0,0,1,3.064,9.359,51.585,51.585,0,0,1,.121,11.427c-.35,2.516-27.276,148.935-27.414,149.074-.059.059-6.532.078-14.386.043l-14.279-.063,7.261-39.474c3.993-21.711,7.266-39.612,7.274-39.78.01-.24-2.558-.305-12.069-.305-11.295,0-12.09.027-12.209.428-.07.235-3.27,17.586-7.11,38.557s-7.1,38.707-7.239,39.413l-.257,1.283H491.121Zm78.623-124.96c3.391-18.223,3.756-20.448,3.793-23.1a12.1,12.1,0,0,0-.424-4.346,12.43,12.43,0,0,0-6.912-7.276,16.392,16.392,0,0,0-18.069,5.686,15.352,15.352,0,0,0-3.146,5.7c-.508,1.58-8.195,42.193-8.195,43.3,0,.263,2.66.31,14.6.259l14.6-.063Z"/><path id="path1524-3" class="cls-8" d="M496.845,722.937c.12-.639,6.264-33.993,13.653-74.121s13.708-73.973,14.042-75.211a51.232,51.232,0,0,1,16.387-25.442A48.949,48.949,0,0,1,561.214,537.4a40.606,40.606,0,0,1,12.27-1.19,31.736,31.736,0,0,1,14.969,3.724,32.453,32.453,0,0,1,14.161,14.2,37.231,37.231,0,0,1,3.065,9.359,51.585,51.585,0,0,1,.12,11.427c-.349,2.516-27.275,148.935-27.414,149.073-.059.059-6.532.078-14.385.044l-14.279-.063,7.26-39.475c3.993-21.71,7.267-39.611,7.274-39.779.011-.241-2.558-.306-12.068-.306-11.3,0-12.091.028-12.21.428-.07.235-3.269,17.586-7.11,38.558s-7.1,38.707-7.239,39.413l-.256,1.283H496.628Zm78.623-124.961c3.391-18.223,3.757-20.447,3.793-23.1a12.113,12.113,0,0,0-.423-4.346,12.436,12.436,0,0,0-6.913-7.275,16.392,16.392,0,0,0-18.068,5.685,15.336,15.336,0,0,0-3.146,5.7c-.509,1.58-8.2,42.193-8.2,43.3,0,.263,2.659.31,14.6.259l14.6-.063Z"/><path id="path1575-8" class="cls-8" d="M82.481,723.445c.055-.236,7.8-42.279,17.209-93.43s17.167-93.25,17.237-93.553l.126-.55H137.9c22.5,0,24.386.081,29,1.243a35.981,35.981,0,0,1,17.753,11.334c5.367,6.695,7.625,14.759,6.922,24.717-.364,5.164-5.223,31.67-6.538,35.666a52.512,52.512,0,0,1-24.325,29.2l-1.911,1.046.145,1.5c.079.823.585,8.316,1.124,16.651s1.746,26.523,2.683,40.419,1.7,25.473,1.7,25.726c0,.445-.463.46-14.361.46H135.739l-2.516-38.8c-1.384-21.341-2.578-39.273-2.655-39.85l-.139-1.047-2.333.07-2.334.07L118.607,683.3c-3.936,21.442-7.223,39.343-7.3,39.779l-.148.8H96.768c-13.576,0-14.381-.024-14.287-.428Zm61.327-108.217a20.437,20.437,0,0,0,10.543-6.746c2.983-3.916,3.361-5.1,5.755-18.054,2.081-11.256,2.441-14.4,1.909-16.663a11.808,11.808,0,0,0-7.549-8.346c-1.222-.453-2.049-.518-7.642-.607l-6.273-.1-.265,1.3c-.193.945-6.942,37.627-8.976,48.783l-.144.8,5.465-.007a41.779,41.779,0,0,0,7.177-.361Z"/><path id="path1575" class="cls-9" d="M77.006,727.528c.055-.235,7.8-42.279,17.209-93.43s17.167-93.25,17.237-93.552l.126-.55h20.851c22.5,0,24.386.081,29,1.243a35.972,35.972,0,0,1,17.753,11.333c5.367,6.7,7.625,14.759,6.922,24.717-.364,5.164-5.223,31.67-6.538,35.667a52.512,52.512,0,0,1-24.325,29.2l-1.91,1.046.144,1.5c.079.824.585,8.316,1.124,16.651s1.746,26.524,2.683,40.42,1.7,25.472,1.7,25.725c0,.445-.464.46-14.362.46H130.264l-2.516-38.8c-1.384-21.341-2.578-39.273-2.655-39.849l-.139-1.047-2.333.069-2.333.07-7.156,38.985c-3.936,21.442-7.223,39.343-7.3,39.78l-.147.794H91.294c-13.577,0-14.382-.024-14.288-.428Zm61.327-108.216a20.439,20.439,0,0,0,10.543-6.747c2.983-3.916,3.361-5.1,5.755-18.054,2.081-11.256,2.442-14.4,1.909-16.662a11.807,11.807,0,0,0-7.549-8.347c-1.222-.452-2.049-.518-7.642-.607l-6.272-.1-.266,1.3c-.193.944-6.942,37.627-8.975,48.783l-.145.794,5.465-.007a41.662,41.662,0,0,0,7.177-.361Z"/><path id="path410-5" class="cls-5" d="M674.138,720.306l4.432-24.149H625.509l29.355-159.182H630.826L597.039,720.306Zm-80.088,2.437,34.672-188.205h29.023L628.389,693.719h53.172l-5.427,29.024Z"/><circle class="cls-10" cx="511.657" cy="140.8" r="11"/><path class="cls-11" d="M164.357,233a393.861,393.861,0,0,1,15.5-85.4,53.054,53.054,0,0,1,1.3-8.9C181.057,138.7,166.857,180.4,164.357,233Z"/><path class="cls-12" d="M148.557,186.2c-.3,4.6-.5,8.5-.5,11.4.1.1.2.3.4.4C148.457,198,148.257,193.6,148.557,186.2Z"/><path class="cls-12" d="M418.057,201a6.033,6.033,0,0,0-.6-1.9,16.352,16.352,0,0,1-.2,2.2A4.537,4.537,0,0,1,418.057,201Z"/><g class="cls-13"><path class="cls-14" d="M131.657,411.7c-35.6-25.3-75.1-65.2-81-119.8-1.1-2-1.6-3.1-1.6-3.1,3.1,83.3,84.4,134.5,122.2,153.8,6.5,1,13,1.7,19.6,2.2A306.906,306.906,0,0,1,131.657,411.7Z"/><path class="cls-14" d="M176.457,463.5a168.48,168.48,0,0,0,16,10.4c32.3,2.6,76-12.6,76-12.6-3.7-1.1-7.3-2.3-10.7-3.5C238.757,463.3,199.257,472.6,176.457,463.5Z"/><path class="cls-14" d="M178.757,409.3a65.768,65.768,0,0,0,8.7,7.1c12-.4,29.3-3.2,29.3-3.2-4.7-1.5-9.3-3-13.8-4.6C193.857,409.8,182.957,410.7,178.757,409.3Z"/><path class="cls-14" d="M226.157,507.3l-6.1-.8a252.457,252.457,0,0,1-56.5-20.3,263.739,263.739,0,0,1-83.3-64.2c-6.4-2.8-10-4.6-10-4.6,49.1,64.2,114.4,87.3,142.2,94.5h24.9A110.6,110.6,0,0,0,226.157,507.3Z"/><path class="cls-14" d="M140.157,79c-.7,1-1.5,1.9-2.2,2.9a230.05,230.05,0,0,0-7.8,48A228.242,228.242,0,0,1,140.157,79Z"/><path class="cls-14" d="M219.957,402.7c-3.3-3-6.4-6-9.3-9.2q-47.85-13.95-79.3-41.7c-43.9-38.7-64.5-97.6-63.2-177.1-.3-1.3-.5-2-.5-2C63.357,299.1,112.357,375.2,219.957,402.7Z"/><path class="cls-14" d="M100.657,175.3a187.088,187.088,0,0,0,3.3,62.4c.9.8,1.8,1.5,2.8,2.3C106.657,240,97.457,213.3,100.657,175.3Z"/><path class="cls-14" d="M212.757,223.5s-8.5,46.5-8.3,55.2c0,0-7.7-24.5-14.5-53.9-5.4-23.3-10.3-49.6-10.4-69.4-2,43.8,24.6,129.2,24.6,129.2-.2-8.8,8.4-55.4,8.4-55.4,3,18.4,30.5,70.4,32,102.8a116.045,116.045,0,0,0,7-42.5,115.488,115.488,0,0,1-6.8,36.3C243.157,293.5,215.757,241.8,212.757,223.5Z"/><path class="cls-14" d="M203.357,135.3c1.3-66.7,63.7-109.9,63.7-109.9-3.4.8-6.6,1.6-9.8,2.5C239.357,43.5,201.657,82.5,203.357,135.3Z"/><path class="cls-14" d="M347.457,7.4a149.4,149.4,0,0,1,18.1-7.4c-113.7,32-142.6,87.8-145.2,121.7C223.657,89.7,250.457,39.3,347.457,7.4Z"/><path class="cls-14" d="M329.457,214.7a43.175,43.175,0,0,1-15.7-27.4,43.863,43.863,0,0,0,10.5,27.7A44.053,44.053,0,0,0,329.457,214.7Z"/><path class="cls-14" d="M305.957,218.3c-6.8-1.5-12-3.1-12-3.1,18.3,15.5,36.3,19.8,48.5,20.5a95.786,95.786,0,0,1,14.5-6.8C356.857,228.9,333.157,234.7,305.957,218.3Z"/><path class="cls-14" d="M273.457,484.6a84.262,84.262,0,0,1-13,7.5c32.7,1.3,54.3-15.9,62.8-24.2,1.5-3.6,2.8-7.4,4.1-11.4C327.357,456.5,308.257,480.8,273.457,484.6Z"/><path class="cls-14" d="M359.757,256.2c-6.8,5.9-29.1,25.6-38.1,38.5-22.5,32.1-22.6,64.7-53.4,73.9-3.6,6-6.8,7.7-6.8,7.7,23.8,7.4,60-62.7,73.5-87.5,4.2-7.7,11.3-15.9,19.2-23.6,2.3-3.5,4.8-7,7.5-10.7C361.757,254.5,360.957,255.1,359.757,256.2Z"/><path class="cls-14" d="M257.857,413.7a125.259,125.259,0,0,1-12.2,4.2c41,12.7,76.7-18.8,92.7-36.2,2.9-6.3,5.7-12.2,8.6-17.3C346.957,364.4,307.757,419.3,257.857,413.7Z"/><path class="cls-14" d="M279.257,329.8c5.3-18.4,14.3-44.7,31.8-66.8C292.857,283.4,284.057,309.8,279.257,329.8Z"/><path class="cls-14" d="M380.457,265c-5.9,11.9-17.3,23.9-13.6,66.8-2.1-37.8,8.5-49.3,14.2-60.6,16-32.8,94.1-69.6,94.1-69.6a31.7,31.7,0,0,0-8.5-2.4C446.957,209.2,393.257,238.4,380.457,265Z"/><path class="cls-14" d="M343.957,496.2c-3.3,5.5-6.4,10.7-9.2,15.6h4.3c1.6-2.7,3.3-5.5,5-8.4,31.5-59.6,33.2-91.2,31.6-109.6C376.057,412.9,371.557,443.6,343.957,496.2Z"/><path class="cls-14" d="M409.757,437.1s-5.7,18.6-34.2,33.8a100.46,100.46,0,0,1-5.7,10.1c33.9-15.6,40.4-36.8,40.4-36.8a17.355,17.355,0,0,1,1.4,3.8A18.807,18.807,0,0,0,409.757,437.1Z"/><path class="cls-14" d="M411.457,459c44.3-21.1,70.6-59.4,70.6-59.4a91.738,91.738,0,0,1-16.3,11.4c-11.8,12.5-30.1,28.7-53.6,40.2A22.529,22.529,0,0,1,411.457,459Z"/><path class="cls-14" d="M417.657,402s.9-.6,2.2-1.6a91.383,91.383,0,0,0,.4-26.1A99.448,99.448,0,0,1,417.657,402Z"/><path class="cls-14" d="M425.957,421.9s1-.4,2.8-1c2.9-11.9,5-24.5,5-24.5a24.905,24.905,0,0,1-2.3,2.2c-1.2,6.4-3,15-5.1,22.1C426.257,421,426.157,421.4,425.957,421.9Z"/><path class="cls-14" d="M380.457,324.7a269.947,269.947,0,0,1,10.3,52.7,258.206,258.206,0,0,0-8.3-50.1A18.587,18.587,0,0,0,380.457,324.7Z"/><path class="cls-14" d="M602.057,337.4a16.932,16.932,0,0,0,6.7-.5c46-69.6,40.1-126.6,25.9-163.5C645.757,217.8,645.057,276.2,602.057,337.4Z"/><path class="cls-14" d="M539.757,324.1s-6-7.3-81,60.7c-1.6,3.8-3.3,7.8-4.8,12,45.3-41.3,67.2-57,77.7-62.8C534.257,329.6,536.957,326.1,539.757,324.1Z"/><path class="cls-14" d="M616.457,393.8a66.268,66.268,0,0,0,12.5-1.9c63.9-58.2,54.1-144.9,54.1-144.9-.5,1.3-1.1,2.5-1.6,3.8C681.857,277.2,676.857,347.7,616.457,393.8Z"/><path class="cls-14" d="M581.957,462.3c-35.4,15.7-78.5,18.5-136.7,2.8-4.4,1-8.9,2.1-13.4,3.2,137.7,42.6,195.3-12.1,257.4-100.3a135.356,135.356,0,0,1-16.4,12.7C645.457,417.3,617.657,446.4,581.957,462.3Z"/><path class="cls-14" d="M517.757,370.2a46.105,46.105,0,0,1-6.3,9.5c20.8-2.5,69.8-62.9,91.5-90.8,2.9-6.6,5.9-13.5,8.9-20.6C616.257,257.5,548.857,353.9,517.757,370.2Z"/><path class="cls-14" d="M535.857,47.7a226.3,226.3,0,0,1,34.8,66.1,226.218,226.218,0,0,0-28.2-59.6C540.357,52,538.157,49.8,535.857,47.7Z"/><path class="cls-14" d="M578.757,243.6c-1.3,7.1-2.5,11.1-2.5,11.1,29.4-30.7,31.9-75.6,17.2-118.9C605.357,174.9,602.857,214.6,578.757,243.6Z"/><path class="cls-14" d="M586.357,511.8c18.2-9.7,35.6-22.8,56-39.4-6.4,2.1-12.5,4-18.4,5.8-19,14.7-36.2,25.8-55.2,33.6Z"/><path class="cls-14" d="M462.757,499.6s-14.8-9.9-24.7-20.9c-2-.5-4-1.1-6-1.6,4.1,7.8,13.6,16.4,21,22.4C456.457,499.6,459.757,499.6,462.757,499.6Z"/><path class="cls-14" d="M368.657,491.8c-4.7-1.2-7.4-1.9-7.4-1.9a285.1,285.1,0,0,0,19.3,21.9h7.4A242.719,242.719,0,0,1,368.657,491.8Z"/></g><path class="cls-15" d="M224.057,145.6c-2.6-4.9-4.3-13.3-3.5-23.9-1.1,11.4.7,20.5,3.4,25.6,49.2-106.7,116.9-137.4,140.6-145.1-5.9,1.7-11.6,3.4-17.1,5.2C316.357,22.3,264.157,59,224.057,145.6Z"/><path class="cls-15" d="M224.057,145.6c40.1-86.6,92.3-123.3,123.4-138.2-97.1,31.9-123.8,82.3-127,114.3C219.657,132.3,221.457,140.8,224.057,145.6Z"/><path class="cls-16" d="M428.757,420.8c-1.8.7-2.8,1-2.8,1,.1-.4.3-.9.4-1.3,2.1-7.1,3.9-15.7,5.1-22.1,1-5.3,1.6-9,1.6-9-3.1,3.2-9.8,8.4-13.2,11-1.3,1-2.2,1.6-2.2,1.6a103.713,103.713,0,0,0,2.6-27.8c-.9-16.8-6.5-25.4-6.5-25.4-1.2,22.7-7.9,35.1-7.9,35.1-2.6-38.3-26-65.7-26-65.7.9,3,1.7,6,2.5,9a258.206,258.206,0,0,1,8.3,50.1c2.7,45-9.1,77.4-21.1,96.5,2.1-1,4-1.9,5.9-2.9,28.5-15.2,34.2-33.8,34.2-33.8a19.643,19.643,0,0,1,1.9,10.9,17.777,17.777,0,0,1-.7,3.9l1.2-.6c23.4-11.5,41.7-27.7,53.6-40.2a168.635,168.635,0,0,0,15.4-18.4C467.557,405.4,437.957,417.3,428.757,420.8Z"/><path class="cls-17" d="M593.457,135.8c-10.4-34.3-31.9-68-59.4-93.5,3,3.9,5.8,7.9,8.5,11.9a230.017,230.017,0,0,1,28.1,59.5c21.8,71.4,4,134.4,4,134.4,1.4-1.5,2.8-3,4.1-4.6C602.857,214.6,605.357,174.9,593.457,135.8Z"/><path class="cls-18" d="M164.057,240.5l-.1.1c-18.4,18.7-18.4,69.6-18.4,69.6-23.8-15.5-25.4-34.7-25.4-34.7-5.4,30.2,5.4,62.1,11.1,76.3q31.5,27.75,79.3,41.7c3.2.9,6.4,1.8,9.7,2.7C173.457,353.9,162.657,292.7,164.057,240.5Z"/><path class="cls-19" d="M179.857,147.6a64.281,64.281,0,0,0-.2,7.7,62.332,62.332,0,0,1,1.4-11.4S180.557,145.2,179.857,147.6Z"/><path class="cls-19" d="M164.057,240.5l.3-7.5c-.2,2.5-.3,5.1-.4,7.6A.1.1,0,0,1,164.057,240.5Z"/><path class="cls-19" d="M148.557,186.2c-.3,7.4-.1,11.8-.1,11.8-.1-.1-.2-.3-.4-.4-15.4-18.7-18.9-44.4-17.9-67.6a217.624,217.624,0,0,1,7.8-48c1.3-4.9,2.3-7.7,2.3-7.7-27.3,35.7-37.2,71.7-39.7,101.1-3.2,37.9,6,64.7,6,64.7-.9-.7-1.9-1.5-2.8-2.3-23.9-21-35.6-70.2-35.6-70.2-.1,2.4-.1,4.8-.2,7.1-1.3,79.6,19.3,138.5,63.2,177.1-5.8-14.2-16.6-46.1-11.1-76.3,0,0,1.6,19.2,25.4,34.7,0,0,0-50.9,18.4-69.6.1-2.6.3-5.1.4-7.6,2.6-52.7,16.8-94.3,16.8-94.3a65.808,65.808,0,0,0-1.3,8.9c.7-2.4,1.2-3.7,1.2-3.7a63.419,63.419,0,0,0-1.4,11.4c.1,19.8,5,46.2,10.4,69.4.9-10.5,2.4-22.1,4.8-30,0,0,3.6,16,6.2,18.6,0,0,3.3-28,9.1-37.9a8.32,8.32,0,0,1,1.3-1.8,117.026,117.026,0,0,1-8-38.4c-1.7-52.9,36-91.9,53.9-107.4a105.555,105.555,0,0,1,9.2-7.3C163.657,44,150.157,150.4,148.557,186.2Z"/><path class="cls-18" d="M223.457,198a144.865,144.865,0,0,1-12.1-24.3,20.278,20.278,0,0,0-1.3,1.8c-5.9,9.9-9.1,37.9-9.1,37.9-2.6-2.6-6.2-18.6-6.2-18.6-2.3,7.9-3.8,19.6-4.8,30,6.8,29.4,14.5,53.9,14.5,53.9-.2-8.7,8.3-55.2,8.3-55.2,3,18.3,30.4,70,32.1,102.2a114.96,114.96,0,0,0,6.8-36.3C252.657,250.6,234.057,217.9,223.457,198Z"/><path class="cls-20" d="M541.057,330.8s-1.2-1.5-9.5,3.1c-7.8,12.7-14.9,32.2-21.3,38.8a21.809,21.809,0,0,0,7.4-2.6C524.757,357.1,532.557,337.1,541.057,330.8Z"/><path class="cls-17" d="M628.957,392a75.494,75.494,0,0,1-12.5,1.9c60.4-46.1,65.4-116.6,65-143-.1-6.6-.5-10.4-.5-10.4-32.4,77.5-60,93.4-72.2,96.5a16.8,16.8,0,0,1-6.7.5c43-61.2,43.7-119.6,32.6-164-12.2-48.8-38.6-80.6-38.6-80.6,7.3,13.8,30.8,113,6.4,149.5-53.8,80.5-112.4,46.2-149.3,147.4,1.9-1.7,3.8-3.4,5.6-5.1,75-68,81-60.7,81-60.7-2.8,2-5.5,5.6-8.2,9.9,8.2-4.6,9.5-3.1,9.5-3.1-8.6,6.2-16.3,26.2-23.4,39.3,31.1-16.3,94.1-101.9,94.1-101.9-3,7.2-6,14-8.9,20.6-11,24.9-21.4,46-31.4,63.7a74.785,74.785,0,0,1-1.2,11.6h0c-4.4,24.5-18.9,56.8-18.9,56.8,18.6-2.1,36.2-21.7,36.2-21.7,0,31.1-20.7,44.5-20.7,44.5,11.4,4.1,33.1,0,33.1,0a67.8,67.8,0,0,1-18.1,18.5c35.7-15.9,63.5-44.9,90.9-81.6,4.8-6.4,9.6-13.1,14.4-19.9C664.557,381.1,642.257,389,628.957,392Z"/><path class="cls-21" d="M466.657,199.2c2.5-1.3,4.5-2.2,5.7-2.8-4.2.6-8.3,1.4-12.4,2.3A29.827,29.827,0,0,1,466.657,199.2Z"/><path class="cls-22" d="M459.957,198.6c-51.7,11.5-89,46.1-100.2,57.6,1.3-1.1,2-1.7,2-1.7-2.7,3.7-5.2,7.2-7.5,10.7-37.4,55.3-31.5,83.4-53.9,110.7-30.6,37.2-54.3,35.3-54.3,35.3a69.982,69.982,0,0,0,11.9,2.5c49.9,5.6,89.1-49.4,89.1-49.4-2.9,5.1-5.7,10.9-8.6,17.3-9.6,21.2-19.8,47.7-34.8,67.5-19.5,25.8-42.8,35.9-42.8,35.9a75.91,75.91,0,0,0,12.6-.5c34.8-3.9,53.9-28.2,53.9-28.2a117.179,117.179,0,0,1-4.1,11.4,142.53,142.53,0,0,1-27.9,43.9h39.3c2.8-4.9,5.9-10.1,9.2-15.6,27.6-52.6,32.1-83.3,31.6-102.3-.3-9.7-1.8-16.4-2.2-21.4a329.961,329.961,0,0,1-6.5-40.8c-3.8-42.8,7.6-54.9,13.6-66.8,12.9-26.6,66.6-55.8,86.2-65.8C464.457,198.8,462.257,198.6,459.957,198.6Z"/><path class="cls-23" d="M386.957,197l-1-1.7a59.14,59.14,0,0,1-13.1,3.6l12.4.8A6.5,6.5,0,0,1,386.957,197Z"/><path class="cls-23" d="M390.457,195.7a2.769,2.769,0,0,1,.9.1l1.3-3.4c-1.9,1-3.7,1.8-5.5,2.6l.9,1.4A4.423,4.423,0,0,1,390.457,195.7Z"/><path class="cls-24" d="M418.057,201c-.5.2-.7.3-.7.3.1-.7.1-1.5.2-2.2.3-14.7-17.2-17.5-17.2-17.5-1.3.9-2.6,1.7-4,2.5l-2.3,7.6-1.3,4.5a5.284,5.284,0,0,1,2.5,2.4l16.1-5-15.3,6.2a4.05,4.05,0,0,1,1.3,4.9l11.9,8.1-12.6-7.1a4.153,4.153,0,0,1-5,1.1l1.3,16.3-2.7-16.9a5.5,5.5,0,0,1-3-1.1l-12.6,11.7,11.6-12.7a5.078,5.078,0,0,1-1-2.9l-13.6-2-3.3-.5,4.7.3a59.14,59.14,0,0,0,13.1-3.6l-2.9-5c-41.2,14.7-68.6-20.7-68.6-20.7a47.89,47.89,0,0,0-.6,17.7,43.427,43.427,0,0,0,15.7,27.4,29.608,29.608,0,0,1-5.2.4c-12.7-.1-30.8-5.6-30.8-5.6a96,96,0,0,0,12.3,8.9c27.3,16.4,51,10.6,51,10.6a106.541,106.541,0,0,0-14.5,6.8,109.178,109.178,0,0,0-31.3,27.3c-17.5,22.1-26.5,48.4-31.8,66.8-2.7,9.5-4.5,16.9-5.9,20.6-5.1,13.1-16.5,20.4-16.5,20.4a62.094,62.094,0,0,0,11.4-2.2c30.8-9.2,31-41.7,53.4-73.9,9-12.9,31.3-32.7,38.1-38.5,11.2-11.5,48.5-46.1,100.2-57.6,4-.9,8.2-1.7,12.4-2.3l1.6-.8C455.357,187.2,423.257,199,418.057,201Z"/><path class="cls-24" d="M392.757,192.3l3.1-8a69.261,69.261,0,0,1-12,5.7l3.4,4.8C388.957,194.1,390.857,193.3,392.757,192.3Z"/><path class="cls-23" d="M395.757,201a5.932,5.932,0,0,1-.5,2.3l2,1.4a4.184,4.184,0,0,0-1.3-4.9l-.3.1A3.75,3.75,0,0,1,395.757,201Z"/><path class="cls-23" d="M391.657,206.1v.6a4.153,4.153,0,0,0,5-1.1l-2.2-1.2A4.589,4.589,0,0,1,391.657,206.1Z"/><path class="cls-17" d="M484.157,484.1c3.5,2.5,8.8,6.3,15,10.4,8.6,5.8,18.8,12.3,28,17.3h41.7c19-7.8,36.2-18.9,55.2-33.6,5.4-4.2,11-8.7,16.8-13.4C555.557,492.5,523.257,493.3,484.157,484.1Z"/><path class="cls-25" d="M566.857,443.8s20.7-13.5,20.7-44.5c0,0-17.6,19.7-36.2,21.7,0,0,14.6-32.3,18.9-56.8a74.785,74.785,0,0,0,1.2-11.6c-54.2,96.6-94.5,96.7-140.2,108.4,4.8,1.5,9.4,2.8,14,4,58.2,15.7,101.3,12.9,136.7-2.8a67.783,67.783,0,0,0,18.1-18.5C600.057,443.8,578.257,447.9,566.857,443.8Z"/><path class="cls-25" d="M499.157,494.5c-6.1-4.1-11.4-7.9-15-10.4-15.3-3.6-31.7-8.7-52.7-14.4a47.229,47.229,0,0,0,6.5,8.9c9.9,11,24.7,20.9,24.7,20.9-3,.1-6.3,0-9.7-.2-36.2-1.9-92-16.6-92-16.6,2.5,3.2,5.1,6.2,7.5,9.1a260.338,260.338,0,0,0,19.3,20h139.4C517.957,506.8,507.757,500.3,499.157,494.5Zm-37,11.7c-.3-.2-.7-.5-1.1-.8A7.632,7.632,0,0,0,462.157,506.2Zm-6-4.4c1,.7,1.9,1.4,2.7,2-.8-.6-1.8-1.3-2.7-2-.6-.5-1.3-1-2-1.6C454.857,500.8,455.457,501.3,456.157,501.8Z"/><path class="cls-19" d="M119.857,437c-2-3.7-3.4-6.5-4.1-8.1a370.987,370.987,0,0,1-44.4-17.9c2.9,3.8,5.9,7.5,8.9,11a263.739,263.739,0,0,0,83.3,64.2A159.725,159.725,0,0,1,119.857,437Z"/><path class="cls-19" d="M104.957,354.3c-.7-3.3-1.2-6.1-1.4-8-38.9-32.8-53.5-63.2-53.5-63.2.1,2.9.3,5.9.6,8.7,5.9,54.6,45.4,94.5,81,119.8C115.357,394.3,107.957,368.8,104.957,354.3Z"/><path class="cls-18" d="M192.557,473.9a150.959,150.959,0,0,1-16-10.4c22.8,9.1,62.3-.2,81.4-5.7,6.7-1.9,10.9-3.4,10.9-3.4-44-13.5-69.4-29-81.4-37.9a86.693,86.693,0,0,1-8.7-7.1c4.3,1.3,15.1.4,24.2-.6,7.7-.9,14.2-2,14.2-2-50.7-15.6-87.5-38.5-113.5-60.3.3,1.9.8,4.6,1.4,8,3,14.4,10.3,40,26.7,57.4a306.906,306.906,0,0,0,59.2,33.1c-6.6-.4-13.1-1.2-19.6-2.2a331.143,331.143,0,0,1-55.5-13.8,76.337,76.337,0,0,0,4.1,8.1,159.725,159.725,0,0,0,43.7,49.2,252.457,252.457,0,0,0,56.5,20.3l6.1.8s5.1,1.7,11.2,4.5h25.7c1-.4,2-.9,2.9-1.3,5.6-2.5,10-4.9,10-4.9A290.627,290.627,0,0,1,192.557,473.9Z"/><path class="cls-26" d="M397.557,180l-1.7,4.3c.2-.1.3-.2.5-.3Z"/><path class="cls-26" d="M378.357,182.3l4.7,8c.3-.1.5-.2.8-.3Z"/><path class="cls-23" d="M387.157,194.9l-3.4-4.8c-.3.1-.5.2-.8.3l2.9,5C386.357,195.2,386.757,195.1,387.157,194.9Z"/><path class="cls-26" d="M387.157,194.9l-3.4-4.8c-.3.1-.5.2-.8.3l2.9,5C386.357,195.2,386.757,195.1,387.157,194.9Z"/><path class="cls-23" d="M394.057,191.6l2.3-7.6c-.2.1-.3.2-.5.3l-3.1,8A8.265,8.265,0,0,0,394.057,191.6Z"/><path class="cls-26" d="M394.057,191.6l2.3-7.6c-.2.1-.3.2-.5.3l-3.1,8A8.265,8.265,0,0,0,394.057,191.6Z"/><path class="cls-23" d="M368.257,198.7l3.3.5c.4-.1.9-.1,1.3-.2Z"/><path class="cls-26" d="M368.257,198.7l3.3.5c.4-.1.9-.1,1.3-.2Z"/><path class="cls-23" d="M388.157,196.2l-.9-1.4c-.4.2-.8.3-1.2.5l1,1.7A3.467,3.467,0,0,1,388.157,196.2Z"/><path class="cls-26" d="M388.157,196.2l-.9-1.4c-.4.2-.8.3-1.2.5l1,1.7A3.467,3.467,0,0,1,388.157,196.2Z"/><path class="cls-23" d="M386.257,204.1l-11.5,12.7,12.6-11.7A2.66,2.66,0,0,1,386.257,204.1Z"/><path class="cls-26" d="M386.257,204.1l-11.5,12.7,12.6-11.7A2.66,2.66,0,0,1,386.257,204.1Z"/><path class="cls-23" d="M385.357,199.8l-12.4-.8c-.4.1-.9.1-1.3.2l13.6,2V201A2.462,2.462,0,0,1,385.357,199.8Z"/><path class="cls-26" d="M385.357,199.8l-12.4-.8c-.4.1-.9.1-1.3.2l13.6,2V201A2.462,2.462,0,0,1,385.357,199.8Z"/><path class="cls-23" d="M390.457,206.3h-.3l2.7,16.9-1.3-16.3a2.177,2.177,0,0,1-.8-.5C390.757,206.2,390.657,206.3,390.457,206.3Z"/><path class="cls-26" d="M390.457,206.3h-.3l2.7,16.9-1.3-16.3a2.177,2.177,0,0,1-.8-.5C390.757,206.2,390.657,206.3,390.457,206.3Z"/><path class="cls-23" d="M395.957,199.7l15.3-6.2-16.1,5a3.552,3.552,0,0,1,.4.9A.536.536,0,0,0,395.957,199.7Z"/><path class="cls-26" d="M395.957,199.7l15.3-6.2-16.1,5a3.552,3.552,0,0,1,.4.9A.536.536,0,0,0,395.957,199.7Z"/><path class="cls-23" d="M391.357,195.8a4.951,4.951,0,0,1,1.3.4l1.3-4.5c-.5.2-.9.5-1.4.7Z"/><path class="cls-26" d="M391.357,195.8a4.951,4.951,0,0,1,1.3.4l1.3-4.5c-.5.2-.9.5-1.4.7Z"/><path class="cls-23" d="M409.257,212.7l-11.9-8.1a8.794,8.794,0,0,1-.6,1Z"/><path class="cls-26" d="M409.257,212.7l-11.9-8.1a8.794,8.794,0,0,1-.6,1Z"/><path class="cls-23" d="M394.457,204.4l2.2,1.2a2.075,2.075,0,0,0,.6-1l-2.1-1.4A2.4,2.4,0,0,1,394.457,204.4Z"/><path class="cls-26" d="M394.457,204.4l2.2,1.2a2.075,2.075,0,0,0,.6-1l-2.1-1.4A2.4,2.4,0,0,1,394.457,204.4Z"/><path class="cls-23" d="M390.857,206.2a3.508,3.508,0,0,0,.8.5v-.6A2.2,2.2,0,0,1,390.857,206.2Z"/><path class="cls-26" d="M390.857,206.2a3.508,3.508,0,0,0,.8.5v-.6A2.2,2.2,0,0,1,390.857,206.2Z"/><path class="cls-23" d="M395.657,199.9l.3-.1c-.1-.1-.3-.2-.4-.3C395.557,199.6,395.657,199.7,395.657,199.9Z"/><path class="cls-26" d="M395.657,199.9l.3-.1c-.1-.1-.3-.2-.4-.3C395.557,199.6,395.657,199.7,395.657,199.9Z"/><path class="cls-23" d="M393.057,198.9h.8l1.3-.4a5.3,5.3,0,0,0-2.5-2.4l-.6,1.9A3,3,0,0,1,393.057,198.9Z"/><path class="cls-27" d="M393.057,198.9h.8l1.3-.4a5.3,5.3,0,0,0-2.5-2.4l-.6,1.9A3,3,0,0,1,393.057,198.9Z"/><path class="cls-23" d="M389.357,203.7c-.1-.1-.2-.1-.4-.2l-1.8,1.7a5.5,5.5,0,0,0,3,1.1l-.1-.8A6.7,6.7,0,0,1,389.357,203.7Z"/><path class="cls-27" d="M389.357,203.7c-.1-.1-.2-.1-.4-.2l-1.8,1.7a5.5,5.5,0,0,0,3,1.1l-.1-.8A6.7,6.7,0,0,1,389.357,203.7Z"/><path class="cls-23" d="M387.657,201.6l-2.4-.4a4.839,4.839,0,0,0,1,2.9l1.7-1.8C387.757,202.1,387.757,201.8,387.657,201.6Z"/><path class="cls-27" d="M387.657,201.6l-2.4-.4a4.839,4.839,0,0,0,1,2.9l1.7-1.8C387.757,202.1,387.757,201.8,387.657,201.6Z"/><path class="cls-23" d="M388.157,196.2l1.2,1.8a2.768,2.768,0,0,1,1.3-.3l.8-2a5.276,5.276,0,0,0-3.3.5Z"/><path class="cls-27" d="M388.157,196.2l1.2,1.8a2.768,2.768,0,0,1,1.3-.3l.8-2a5.276,5.276,0,0,0-3.3.5Z"/><path class="cls-23" d="M386.957,197a5.032,5.032,0,0,0-1.6,2.7l2.4.2a3.552,3.552,0,0,1,.4-.9Z"/><path class="cls-27" d="M386.957,197a5.032,5.032,0,0,0-1.6,2.7l2.4.2a3.552,3.552,0,0,1,.4-.9Z"/><path class="cls-23" d="M393.857,199h-.8l.2.2Z"/><path class="cls-27" d="M393.857,199h-.8l.2.2Z"/><path class="cls-23" d="M389.357,203.7a3.63,3.63,0,0,0,.7,1.7l-.3-1.6C389.657,203.8,389.557,203.7,389.357,203.7Z"/><path class="cls-27" d="M389.357,203.7a3.63,3.63,0,0,0,.7,1.7l-.3-1.6C389.657,203.8,389.557,203.7,389.357,203.7Z"/><path class="cls-23" d="M393.757,200.8a2.663,2.663,0,0,1-.3,1.2l1.7,1.2a5.932,5.932,0,0,0,.5-2.3,4.1,4.1,0,0,0-.1-1.1l-1.9.8A.31.31,0,0,1,393.757,200.8Z"/><path class="cls-27" d="M393.757,200.8a2.663,2.663,0,0,1-.3,1.2l1.7,1.2a5.932,5.932,0,0,0,.5-2.3,4.1,4.1,0,0,0-.1-1.1l-1.9.8A.31.31,0,0,1,393.757,200.8Z"/><path class="cls-23" d="M391.457,203.8l.2,2.3a5.1,5.1,0,0,0,2.8-1.7l-2-1.1A1.905,1.905,0,0,1,391.457,203.8Z"/><path class="cls-27" d="M391.457,203.8l.2,2.3a5.1,5.1,0,0,0,2.8-1.7l-2-1.1A1.905,1.905,0,0,1,391.457,203.8Z"/><path class="cls-28" d="M393.057,198.9a3.915,3.915,0,0,0-1-.8l-.3,1.1C392.257,199.1,392.657,199,393.057,198.9Z"/><path class="cls-27" d="M393.057,198.9a3.915,3.915,0,0,0-1-.8l-.3,1.1C392.257,199.1,392.657,199,393.057,198.9Z"/><path class="cls-28" d="M388.157,199.1a3.552,3.552,0,0,0-.4.9l.9.1Z"/><path class="cls-27" d="M388.157,199.1a3.552,3.552,0,0,0-.4.9l.9.1Z"/><path class="cls-28" d="M387.657,201.6a4.875,4.875,0,0,0,.3.7l.5-.6Z"/><path class="cls-27" d="M387.657,201.6a4.875,4.875,0,0,0,.3.7l.5-.6Z"/><path class="cls-28" d="M389.057,203.5c.1.1.2.1.4.2v-.5Z"/><path class="cls-27" d="M389.057,203.5c.1.1.2.1.4.2v-.5Z"/><path class="cls-28" d="M390.057,199.1l.5-1.3a3.079,3.079,0,0,0-1.3.3Z"/><path class="cls-27" d="M390.057,199.1l.5-1.3a3.079,3.079,0,0,0-1.3.3Z"/><path class="cls-28" d="M391.457,203.8a3.128,3.128,0,0,0,1-.5l-1.1-.6Z"/><path class="cls-27" d="M391.457,203.8a3.128,3.128,0,0,0,1-.5l-1.1-.6Z"/><path class="cls-28" d="M389.657,202.9l-.3.3v.5a.6.6,0,0,0,.4.1Z"/><path class="cls-27" d="M389.657,202.9l-.3.3v.5a.6.6,0,0,0,.4.1Z"/><path class="cls-28" d="M393.457,202.1a2.663,2.663,0,0,0,.3-1.2v-.2l-1.5.6Z"/><path class="cls-27" d="M393.457,202.1a2.663,2.663,0,0,0,.3-1.2v-.2l-1.5.6Z"/><path class="cls-28" d="M391.657,199.6l1.6-.5c0-.1-.1-.1-.2-.2a3.079,3.079,0,0,0-1.3.3Z"/><path class="cls-27" d="M391.657,199.6l1.6-.5c0-.1-.1-.1-.2-.2a3.079,3.079,0,0,0-1.3.3Z"/><path class="cls-23" d="M387.957,202.3l-1.7,1.8a4.741,4.741,0,0,0,1,1l1.8-1.7A1.981,1.981,0,0,1,387.957,202.3Z"/><path class="cls-26" d="M387.957,202.3l-1.7,1.8a4.741,4.741,0,0,0,1,1l1.8-1.7A1.981,1.981,0,0,1,387.957,202.3Z"/><path class="cls-27" d="M387.957,202.3l-1.7,1.8a4.741,4.741,0,0,0,1,1l1.8-1.7A1.981,1.981,0,0,1,387.957,202.3Z"/><path class="cls-23" d="M389.357,198l-1.2-1.8a8.342,8.342,0,0,0-1.2.8l1.2,2A4,4,0,0,1,389.357,198Z"/><path class="cls-26" d="M389.357,198l-1.2-1.8a8.342,8.342,0,0,0-1.2.8l1.2,2A4,4,0,0,1,389.357,198Z"/><path class="cls-27" d="M389.357,198l-1.2-1.8a8.342,8.342,0,0,0-1.2.8l1.2,2A4,4,0,0,1,389.357,198Z"/><path class="cls-23" d="M390.857,206.2a3.044,3.044,0,0,1-.8-.8l.1.8h.3C390.657,206.3,390.757,206.2,390.857,206.2Z"/><path class="cls-26" d="M390.857,206.2a3.044,3.044,0,0,1-.8-.8l.1.8h.3C390.657,206.3,390.757,206.2,390.857,206.2Z"/><path class="cls-27" d="M390.857,206.2a3.044,3.044,0,0,1-.8-.8l.1.8h.3C390.657,206.3,390.757,206.2,390.857,206.2Z"/><path class="cls-23" d="M395.557,199.5a3.552,3.552,0,0,0-.4-.9l-1.3.4A3.371,3.371,0,0,1,395.557,199.5Z"/><path class="cls-26" d="M395.557,199.5a3.552,3.552,0,0,0-.4-.9l-1.3.4A3.371,3.371,0,0,1,395.557,199.5Z"/><path class="cls-27" d="M395.557,199.5a3.552,3.552,0,0,0-.4-.9l-1.3.4A3.371,3.371,0,0,1,395.557,199.5Z"/><path class="cls-23" d="M390.657,197.7h0a2.41,2.41,0,0,1,1.5.4l.6-1.9a6.468,6.468,0,0,0-1.3-.4Z"/><path class="cls-26" d="M390.657,197.7h0a2.41,2.41,0,0,1,1.5.4l.6-1.9a6.468,6.468,0,0,0-1.3-.4Z"/><path class="cls-27" d="M390.657,197.7h0a2.41,2.41,0,0,1,1.5.4l.6-1.9a6.468,6.468,0,0,0-1.3-.4Z"/><path class="cls-23" d="M387.557,200.8c0-.3.1-.6.1-.9l-2.4-.2a4.869,4.869,0,0,0-.1,1.2v.2l2.4.4Z"/><path class="cls-26" d="M387.557,200.8c0-.3.1-.6.1-.9l-2.4-.2a4.869,4.869,0,0,0-.1,1.2v.2l2.4.4Z"/><path class="cls-27" d="M387.557,200.8c0-.3.1-.6.1-.9l-2.4-.2a4.869,4.869,0,0,0-.1,1.2v.2l2.4.4Z"/><path class="cls-23" d="M392.457,203.3l2,1.1a8.342,8.342,0,0,0,.8-1.2l-1.7-1.2A2.85,2.85,0,0,1,392.457,203.3Z"/><path class="cls-26" d="M392.457,203.3l2,1.1a8.342,8.342,0,0,0,.8-1.2l-1.7-1.2A2.85,2.85,0,0,1,392.457,203.3Z"/><path class="cls-27" d="M392.457,203.3l2,1.1a8.342,8.342,0,0,0,.8-1.2l-1.7-1.2A2.85,2.85,0,0,1,392.457,203.3Z"/><path class="cls-23" d="M393.757,200.6l1.9-.8c0-.1-.1-.3-.1-.4a3.371,3.371,0,0,0-1.7-.5l-.6.2A2.976,2.976,0,0,1,393.757,200.6Z"/><path class="cls-26" d="M393.757,200.6l1.9-.8c0-.1-.1-.3-.1-.4a3.371,3.371,0,0,0-1.7-.5l-.6.2A2.976,2.976,0,0,1,393.757,200.6Z"/><path class="cls-27" d="M393.757,200.6l1.9-.8c0-.1-.1-.3-.1-.4a3.371,3.371,0,0,0-1.7-.5l-.6.2A2.976,2.976,0,0,1,393.757,200.6Z"/><path class="cls-23" d="M390.657,203.9a1.949,1.949,0,0,1-.8-.1l.3,1.6a3.044,3.044,0,0,0,.8.8,2.2,2.2,0,0,0,.8-.1l-.2-2.3A3.085,3.085,0,0,1,390.657,203.9Z"/><path class="cls-26" d="M390.657,203.9a1.949,1.949,0,0,1-.8-.1l.3,1.6a3.044,3.044,0,0,0,.8.8,2.2,2.2,0,0,0,.8-.1l-.2-2.3A3.085,3.085,0,0,1,390.657,203.9Z"/><path class="cls-27" d="M390.657,203.9a1.949,1.949,0,0,1-.8-.1l.3,1.6a3.044,3.044,0,0,0,.8.8,2.2,2.2,0,0,0,.8-.1l-.2-2.3A3.085,3.085,0,0,1,390.657,203.9Z"/><path class="cls-28" d="M389.357,198a2.94,2.94,0,0,0-1.2,1l.5.9-.9-.1a2.917,2.917,0,0,0-.1,1.6l.8.1-.5.6a3.179,3.179,0,0,0,1.1,1.2l.3-.3v-.1a4.273,4.273,0,0,1,2.5-3.8l.3-1.1a2.822,2.822,0,0,0-1.5-.4h0l-.5,1.3Z"/><path class="cls-26" d="M389.357,198a2.94,2.94,0,0,0-1.2,1l.5.9-.9-.1a2.917,2.917,0,0,0-.1,1.6l.8.1-.5.6a3.179,3.179,0,0,0,1.1,1.2l.3-.3v-.1a4.273,4.273,0,0,1,2.5-3.8l.3-1.1a2.822,2.822,0,0,0-1.5-.4h0l-.5,1.3Z"/><path class="cls-27" d="M389.357,198a2.94,2.94,0,0,0-1.2,1l.5.9-.9-.1a2.917,2.917,0,0,0-.1,1.6l.8.1-.5.6a3.179,3.179,0,0,0,1.1,1.2l.3-.3v-.1a4.273,4.273,0,0,1,2.5-3.8l.3-1.1a2.822,2.822,0,0,0-1.5-.4h0l-.5,1.3Z"/><path class="cls-28" d="M389.857,203.8a2.208,2.208,0,0,0,1.6,0l-.1-1.1,1.1.6a3.249,3.249,0,0,0,1-1.3l-1.2-.8,1.5-.6a2.7,2.7,0,0,0-.5-1.5l-1.6.5.1-.4a4.164,4.164,0,0,0-2.5,3.8v.1l.3-.3Z"/><path class="cls-26" d="M389.857,203.8a2.208,2.208,0,0,0,1.6,0l-.1-1.1,1.1.6a3.249,3.249,0,0,0,1-1.3l-1.2-.8,1.5-.6a2.7,2.7,0,0,0-.5-1.5l-1.6.5.1-.4a4.164,4.164,0,0,0-2.5,3.8v.1l.3-.3Z"/><path class="cls-27" d="M389.857,203.8a2.208,2.208,0,0,0,1.6,0l-.1-1.1,1.1.6a3.249,3.249,0,0,0,1-1.3l-1.2-.8,1.5-.6a2.7,2.7,0,0,0-.5-1.5l-1.6.5.1-.4a4.164,4.164,0,0,0-2.5,3.8v.1l.3-.3Z"/><text class="cls-29" transform="translate(634.532 514.205)">2021</text></g></g></svg>