<svg xmlns="http://www.w3.org/2000/svg" viewBox="0 0 495.134 93.878"><defs><style>.cls-1{fill:#1c1c1c;stroke:#232323;stroke-width:0.75px;}.cls-1,.cls-3{stroke-miterlimit:10;}.cls-2{fill:#353535;}.cls-3{fill:none;stroke:#191919;stroke-linecap:round;stroke-width:4px;}</style></defs><g id="Layer_2" data-name="Layer 2"><g id="Layer_1-2" data-name="Layer 1"><path class="cls-1" d="M28.424,75.394l5.8-30.776-9.528,0L18.9,75.392l-11.5,0L18.162,18.417A19.593,19.593,0,0,1,25.123,7.2,18.727,18.727,0,0,1,37.308,2.668,13.651,13.651,0,0,1,47.932,7.251,13.257,13.257,0,0,1,50.652,18.6L39.927,75.4Zm10.713-.939L49.731,18.424A12.4,12.4,0,0,0,47.186,7.85a12.688,12.688,0,0,0-9.878-4.24,17.778,17.778,0,0,0-11.57,4.321,18.568,18.568,0,0,0-6.61,10.657l-.483-.085.483.085L8.535,74.448l9.528,0,5.846-30.777,11.5,0-5.8,30.777Zm-13.47-40.07L28.7,18.419a6.7,6.7,0,0,1,2.416-3.9,6.567,6.567,0,0,1,4.259-1.583,4.824,4.824,0,0,1,3.776,1.628,4.732,4.732,0,0,1,1.008,4.024L37.17,34.388Zm10.713-.939,2.813-15.025a3.764,3.764,0,0,0-.789-3.253,3.859,3.859,0,0,0-3.03-1.285,5.67,5.67,0,0,0-3.644,1.348,5.809,5.809,0,0,0-2.109,3.36L26.852,33.444Z"/><path class="cls-1" d="M48.387,75.4,62.145,2.673l17.079,0A12.939,12.939,0,0,1,89.278,7a12.642,12.642,0,0,1,2.588,10.745l-1.8,9.417a20.619,20.619,0,0,1-7.335,11.941,14.523,14.523,0,0,1,2.807,11.986l-1.758,9.417A18.412,18.412,0,0,1,77.19,71.124a17.741,17.741,0,0,1-11.5,4.278Zm17.3-.938A16.678,16.678,0,0,0,76.575,70.4a17.692,17.692,0,0,0,6.237-10.058l1.759-9.417a13.236,13.236,0,0,0-2.633-11.259l-.57-.684.746-.6A19.9,19.9,0,0,0,89.1,26.993l1.8-9.417A11.857,11.857,0,0,0,88.531,7.6a11.972,11.972,0,0,0-9.307-3.983l-16.245,0L49.572,74.457Zm-4.828-9.333L64.9,43.682h4.522a5.782,5.782,0,0,1,4.521,1.97,5.715,5.715,0,0,1,1.185,4.837l-1.539,8.091a7.95,7.95,0,0,1-2.876,4.665,7.828,7.828,0,0,1-5.072,1.882Zm4.787-.94a6.807,6.807,0,0,0,4.434-1.669,7.41,7.41,0,0,0,2.592-4.109l1.494-8.09a4.743,4.743,0,0,0-.965-4.067,4.819,4.819,0,0,0-3.775-1.627H65.736L62.044,64.186Zm1.016-29.793,4.087-21.445h4.566a5.792,5.792,0,0,1,4.478,1.927,5.648,5.648,0,0,1,1.185,4.8l-1.539,8.09A8.321,8.321,0,0,1,76.5,32.47,7.868,7.868,0,0,1,71.359,34.4Zm4.7-.94a6.953,6.953,0,0,0,4.544-1.69,7.252,7.252,0,0,0,2.569-4.174L80.01,19.5a4.626,4.626,0,0,0-.964-4.024,4.833,4.833,0,0,0-3.732-1.584H71.538L67.846,33.453Z"/><path class="cls-1" d="M99.085,74.51q-9.571-4.154-8.076-15.027l7.78-41.049A19,19,0,0,1,105.6,7.306a20.6,20.6,0,0,1,6.762-3.723,17.951,17.951,0,0,1,5.576-.9,15.234,15.234,0,0,1,5.269.9q9.57,4.155,8.075,15.027L123.5,59.661a19,19,0,0,1-6.807,11.129,20.606,20.606,0,0,1-6.763,3.722,17.921,17.921,0,0,1-5.576.9A15.225,15.225,0,0,1,99.085,74.51ZM112.667,4.482a19.563,19.563,0,0,0-6.411,3.552,18.408,18.408,0,0,0-6.545,10.571l-7.736,41.05q-1.408,10.1,7.461,13.956a13.863,13.863,0,0,0,4.917.857,16.891,16.891,0,0,0,5.269-.855,19.57,19.57,0,0,0,6.411-3.551,18.413,18.413,0,0,0,6.544-10.572l7.737-41.05q1.406-10.1-7.462-13.956a13.877,13.877,0,0,0-4.917-.857A16.948,16.948,0,0,0,112.667,4.482Zm-10.2,58.985a4.629,4.629,0,0,1-.921-3.981l7.736-41.05a6.967,6.967,0,0,1,2.437-3.895A6.543,6.543,0,0,1,116,12.958a4.9,4.9,0,0,1,3.819,1.671,4.632,4.632,0,0,1,.921,3.981l-7.736,41.049a6.964,6.964,0,0,1-2.437,3.9,6.533,6.533,0,0,1-4.282,1.583A4.892,4.892,0,0,1,102.468,63.467Zm9.867-48.219a5.855,5.855,0,0,0-2.087,3.36l-7.78,41.049a3.838,3.838,0,0,0,.79,3.211,3.8,3.8,0,0,0,3.029,1.327,5.645,5.645,0,0,0,3.667-1.347,5.857,5.857,0,0,0,2.086-3.36l7.781-41.05a3.92,3.92,0,0,0-.747-3.21A3.928,3.928,0,0,0,116,13.9,5.638,5.638,0,0,0,112.335,15.248Z"/><path class="cls-1" d="M133.23,70.836a13.368,13.368,0,0,1-2.764-11.344l10.769-56.8,11.5,0L141.969,59.665a3.72,3.72,0,0,0,.746,3.211,3.8,3.8,0,0,0,3.029,1.328,5.728,5.728,0,0,0,3.688-1.348A5.609,5.609,0,0,0,151.5,59.5l10.769-56.8,11.5,0L163,59.669A19.226,19.226,0,0,1,156.149,70.8a19.579,19.579,0,0,1-12.339,4.62A13.6,13.6,0,0,1,133.23,70.836Zm-1.8-11.173a12.4,12.4,0,0,0,2.544,10.574,12.641,12.641,0,0,0,9.834,4.24,18.634,18.634,0,0,0,11.724-4.407,18.189,18.189,0,0,0,6.5-10.571L172.583,3.638l-9.527,0L152.463,59.667a6.707,6.707,0,0,1-2.416,3.895,6.622,6.622,0,0,1-4.3,1.584,4.766,4.766,0,0,1-3.776-1.671A4.556,4.556,0,0,1,141,59.494l10.549-55.86-9.528,0L131.432,59.663l-.483-.086Z"/><path class="cls-1" d="M179.1,75.426l11.648-61.51-10.537,0L182.317,2.7l32.534.007L212.742,13.92l-10.494,0L190.6,75.428Zm10.67-.94,11.648-61.509,10.537,0,1.758-9.332-30.558-.006-1.8,9.331,10.537,0L180.238,74.484Z"/><path class="cls-1" d="M257.4,75.442l-2.057-30.778h-1.8l-5.8,30.776-11.5,0L249.99,2.713l16.114,0a14.729,14.729,0,0,1,5.313.943q9.57,4.155,8.076,15.07L277.6,28.874a17.438,17.438,0,0,1-1.977,5.307,20.483,20.483,0,0,1-8.958,8.474l.788,11.771L268.9,75.445Zm10.449-.94-2.188-32.4.308-.128a20.091,20.091,0,0,0,8.826-8.217V33.71a15.978,15.978,0,0,0,1.845-5.008l1.934-10.144q1.362-10.146-7.5-14.043a14.015,14.015,0,0,0-4.961-.857l-15.323,0L237.42,74.5l9.526,0,5.8-30.776h3.469l2.1,30.778ZM254.506,34.434l4.045-21.446h4.609a5.806,5.806,0,0,1,4.434,1.885,5.579,5.579,0,0,1,1.229,4.709c0,.028,0,.05,0,.064s-.015.036-.044.064l-1.537,8.133v.128A8.284,8.284,0,0,1,264.32,32.6a7.834,7.834,0,0,1-5.072,1.84Zm4.743-.941a6.861,6.861,0,0,0,4.434-1.647,7.312,7.312,0,0,0,2.592-4.045c0-.057.014-.086.044-.086v-.042l1.538-8.133v-.086a4.505,4.505,0,0,0-1.01-3.938,4.774,4.774,0,0,0-3.687-1.585h-3.775l-3.693,19.562Z"/><path class="cls-1" d="M277.535,75.447,291.292,2.721,315,2.727l-2.11,11.214-12.206,0L296.95,33.5l12.25,0-2.154,11.172-12.206,0-3.692,19.562,12.2,0-2.109,11.215Zm22.919-.938,1.759-9.331-12.25,0L294.05,43.73l12.206,0,1.757-9.288-12.206,0L299.852,13l12.206,0,1.758-9.332-21.733,0L278.677,74.505Z"/><path class="cls-1" d="M321.779,75.456l3.088-72.727,11.5,0-1.412,32.961,11.07-32.959,11.5,0L333.283,75.073l-.088.385H332.8Zm10.669-.94L356.216,3.677l-9.485,0L333.684,42.5l1.677-38.826-9.572,0-3,70.844Z"/><path class="cls-1" d="M354.079,75.462,367.836,2.737l11.5,0L365.583,75.465Zm10.669-.939L378.154,3.682l-9.527,0L355.22,74.521Z"/><path class="cls-1" d="M386.115,75.469,389.2,2.742l11.5,0L399.3,35.706,410.366,2.747l11.5,0-24.25,72.337-.088.386h-.4Zm10.669-.939L420.552,3.69l-9.484,0L398.02,42.511,399.7,3.686l-9.572,0-3,70.844Z"/><path class="cls-1" d="M437.252,75.48l5.8-30.776-9.527,0-5.8,30.776-11.5,0L426.989,18.5A19.59,19.59,0,0,1,433.95,7.289a18.719,18.719,0,0,1,12.185-4.535,13.653,13.653,0,0,1,10.624,4.583,13.267,13.267,0,0,1,2.72,11.344l-10.725,56.8Zm10.712-.939,10.592-56.032a12.4,12.4,0,0,0-2.544-10.573,12.684,12.684,0,0,0-9.877-4.24,17.778,17.778,0,0,0-11.57,4.321,18.568,18.568,0,0,0-6.61,10.657l-.483-.085.483.085-10.593,55.86,9.527,0,5.846-30.777,11.5,0-5.8,30.777Zm-13.471-40.07,3.034-15.966a6.7,6.7,0,0,1,2.414-3.895,6.568,6.568,0,0,1,4.26-1.583,4.82,4.82,0,0,1,3.775,1.628,4.735,4.735,0,0,1,1.009,4.024L446,34.474Zm10.714-.939,2.812-15.025a3.761,3.761,0,0,0-.79-3.254,3.853,3.853,0,0,0-3.028-1.284,5.682,5.682,0,0,0-3.646,1.348,5.8,5.8,0,0,0-2.106,3.36l-2.77,14.853Z"/><path class="cls-1" d="M457.215,75.484,470.971,2.759l11.5,0-11.647,61.51,21.074,0-2.153,11.215Zm31.744-.935,1.758-9.331-21.031-.005L481.334,3.7l-9.528,0L458.4,74.542Z"/><path class="cls-2" d="M15.827,15.427a19.222,19.222,0,0,1,6.826-11A18.384,18.384,0,0,1,34.607,0q6.564,0,10.281,4.429t2.63,11L36.824,72.093H26.26l5.826-30.9H21.522L15.7,72.093H5.134ZM34.042,30.9l2.912-15.47a4.34,4.34,0,0,0-.891-3.644A4.2,4.2,0,0,0,32.651,10.3a6.118,6.118,0,0,0-3.978,1.484,6.414,6.414,0,0,0-2.282,3.644L23.478,30.9Z"/><path class="cls-2" d="M60.111,0H76.89a11.94,11.94,0,0,1,9.673,4.175q3.5,4.174,2.5,10.363L87.28,24.031a20.361,20.361,0,0,1-7.172,11.7l-.392.3.261.3a14.07,14.07,0,0,1,2.782,11.74l-1.826,9.451A17.952,17.952,0,0,1,74.543,67.9a17.333,17.333,0,0,1-11.3,4.2H46.5ZM63.2,61.794a7.43,7.43,0,0,0,4.825-1.78,7.653,7.653,0,0,0,2.739-4.408l1.521-8.137A5.284,5.284,0,0,0,71.2,43a5.173,5.173,0,0,0-4.173-1.8h-4.13l-3.869,20.6Zm5.782-30.9a7.466,7.466,0,0,0,4.847-1.8,7.736,7.736,0,0,0,2.76-4.514l1.565-8.1a5.2,5.2,0,0,0-1.065-4.408,5.138,5.138,0,0,0-4.151-1.78H68.761L64.849,30.9Z"/><path class="cls-2" d="M123.434.848a12.365,12.365,0,0,1,6.521,5.573,13.186,13.186,0,0,1,1.261,9.006l-7.782,41.2a18.875,18.875,0,0,1-6.694,10.935,20.411,20.411,0,0,1-6.608,3.645,17.376,17.376,0,0,1-5.477.89,14.011,14.011,0,0,1-5.086-.89,12.04,12.04,0,0,1-6.543-5.552,13.513,13.513,0,0,1-1.282-9.028l7.781-41.2A18.872,18.872,0,0,1,106.22,4.493,21.523,21.523,0,0,1,112.827.848,18.163,18.163,0,0,1,118.305,0,15,15,0,0,1,123.434.848ZM112.871,56.623l7.781-41.2a4.383,4.383,0,0,0-.869-3.644,4.271,4.271,0,0,0-3.434-1.484,6.118,6.118,0,0,0-3.978,1.484,6.409,6.409,0,0,0-2.282,3.644l-7.782,41.2a4.331,4.331,0,0,0,.87,3.645,4.217,4.217,0,0,0,3.434,1.526,6.094,6.094,0,0,0,4-1.483A6.471,6.471,0,0,0,112.871,56.623Z"/><path class="cls-2" d="M141.809,0h10.607L141.678,56.623a4.331,4.331,0,0,0,.87,3.645,4.217,4.217,0,0,0,3.434,1.526,6.523,6.523,0,0,0,6.26-5.171L162.979,0h10.564L162.805,56.623a18.875,18.875,0,0,1-6.694,10.935,18.46,18.46,0,0,1-12.042,4.535q-6.564,0-10.281-4.45t-2.673-11.02Z"/><path class="cls-2" d="M212.957,10.3H202.393L190.7,72.093H180.136L191.83,10.3H181.267L183.179,0h31.735Z"/><path class="cls-2" d="M271.528,30.9a20.831,20.831,0,0,1-9.085,8.477l.13,1.822.7,10.3.7,10.3.7,10.3H254.1l-.695-10.3-.7-10.3-.7-10.3h-2.652l-5.825,30.9H232.969L246.576,0H262.4a14.361,14.361,0,0,1,5.13.89,12.043,12.043,0,0,1,6.543,5.552,13.519,13.519,0,0,1,1.282,9.028l-1.913,10.214A18.5,18.5,0,0,1,271.528,30.9Zm-20.214,0h4.174a7.428,7.428,0,0,0,4.781-1.759,7.544,7.544,0,0,0,2.74-4.344.332.332,0,0,0,.043-.127l1.521-8.18a.124.124,0,0,0,.044-.085,5.039,5.039,0,0,0-5.217-6.1h-4.217Z"/><path class="cls-2" d="M304.77,30.9l-1.956,10.3H290.555l-3.913,20.6H298.9l-1.956,10.3H274.123L287.773,0H310.6l-1.956,10.3H296.38l-3.912,20.6Z"/><path class="cls-2" d="M349.923,10.3l-3.434,10.3-3.478,10.3-3.434,10.3L336.1,51.5l-3.434,10.3-3.434,10.3H318.624l.434-10.3.435-10.3.478-10.3.435-10.3.435-10.3.434-10.3L321.711,0h10.563l-.435,10.3L331.4,20.6l-.435,10.3-.216,5.128,1.695-5.128,3.478-10.3,3.433-10.3L342.838,0H353.4Z"/><path class="cls-2" d="M361.864,72.093H351.3L364.951,0h10.563Z"/><path class="cls-2" d="M414.841,10.3l-3.434,10.3-3.478,10.3L404.5,41.2l-3.478,10.3-3.434,10.3-3.434,10.3H383.542l.434-10.3.435-10.3.478-10.3.435-10.3.435-10.3.434-10.3L386.629,0h10.563l-.435,10.3-.435,10.3-.435,10.3-.216,5.128,1.695-5.128,3.477-10.3,3.434-10.3L407.756,0h10.563Z"/><path class="cls-2" d="M424.739,15.427a19.214,19.214,0,0,1,6.824-11A18.388,18.388,0,0,1,443.518,0q6.564,0,10.282,4.429t2.629,11L445.735,72.093H435.172L441,41.2H430.433l-5.825,30.9H414.045ZM442.953,30.9l2.913-15.47a4.341,4.341,0,0,0-.892-3.644,4.207,4.207,0,0,0-3.412-1.484,6.115,6.115,0,0,0-3.977,1.484,6.416,6.416,0,0,0-2.283,3.644L432.389,30.9Z"/><path class="cls-2" d="M487.15,72.093H455.416L469.066,0H479.63L467.935,61.794h21.127Z"/><line class="cls-3" x1="493.134" y1="88.89" x2="2" y2="91.878"/></g></g></svg>