<svg xmlns="http://www.w3.org/2000/svg" viewBox="0 0 499.278 93.878"><defs><style>.cls-1{fill:#353535;}.cls-2{fill:none;stroke:#191919;stroke-linecap:round;stroke-miterlimit:10;stroke-width:4px;}</style></defs><g id="Layer_2" data-name="Layer 2"><g id="Layer_1-2" data-name="Layer 1"><path class="cls-1" d="M39.736,30.9H29.173l2.912-15.47a4.154,4.154,0,0,0-4.3-5.128A6.117,6.117,0,0,0,23.8,11.783a6.409,6.409,0,0,0-2.282,3.644l-7.782,41.2a4.408,4.408,0,0,0,.892,3.688,4.2,4.2,0,0,0,3.412,1.483,6.09,6.09,0,0,0,4-1.483A6.472,6.472,0,0,0,24.3,56.623L27.217,41.2H37.823L34.867,56.623a19.1,19.1,0,0,1-6.781,11.02,18.337,18.337,0,0,1-11.955,4.45q-6.564,0-10.281-4.45T3.177,56.623l7.781-41.2a19.221,19.221,0,0,1,6.825-11A18.386,18.386,0,0,1,29.738,0Q36.3,0,40.019,4.429t2.63,11Z"/><path class="cls-1" d="M76.412.848a12.369,12.369,0,0,1,6.521,5.573,13.18,13.18,0,0,1,1.26,9.006l-7.781,41.2a18.88,18.88,0,0,1-6.694,10.935A20.411,20.411,0,0,1,63.11,71.2a17.376,17.376,0,0,1-5.477.89,14.017,14.017,0,0,1-5.087-.89A12.038,12.038,0,0,1,46,65.651a13.507,13.507,0,0,1-1.283-9.028l7.782-41.2A18.871,18.871,0,0,1,59.2,4.493,21.528,21.528,0,0,1,65.805.848,18.157,18.157,0,0,1,71.282,0,15,15,0,0,1,76.412.848ZM65.848,56.623l7.782-41.2a4.38,4.38,0,0,0-.87-3.644A4.27,4.27,0,0,0,69.326,10.3a6.122,6.122,0,0,0-3.978,1.484,6.419,6.419,0,0,0-2.282,3.644l-7.781,41.2a4.328,4.328,0,0,0,.87,3.645,4.215,4.215,0,0,0,3.434,1.526,6.092,6.092,0,0,0,4-1.483A6.471,6.471,0,0,0,65.848,56.623Z"/><path class="cls-1" d="M121.608,30.9a20.837,20.837,0,0,1-9.085,8.477l.13,1.822.695,10.3.7,10.3.7,10.3H104.176l-.7-10.3-.7-10.3-.695-10.3H99.438l-5.825,30.9H83.049L96.656,0h15.823a14.369,14.369,0,0,1,5.13.89,12.041,12.041,0,0,1,6.542,5.552,13.507,13.507,0,0,1,1.282,9.028l-1.912,10.214A18.536,18.536,0,0,1,121.608,30.9Zm-20.214,0h4.173a7.428,7.428,0,0,0,4.782-1.759,7.542,7.542,0,0,0,2.739-4.344.332.332,0,0,0,.043-.127l1.522-8.18a.123.123,0,0,0,.043-.085,5.038,5.038,0,0,0-5.216-6.1h-4.217Z"/><path class="cls-1" d="M154.85,30.9l-1.957,10.3H140.635l-3.913,20.6h12.259l-1.956,10.3H124.2L137.852,0h22.823l-1.957,10.3H146.46l-3.913,20.6Z"/><path class="cls-1" d="M216.334,30.9H205.77l2.913-15.47a4.155,4.155,0,0,0-4.3-5.128,6.116,6.116,0,0,0-3.978,1.484,6.416,6.416,0,0,0-2.283,3.644l-7.78,41.2a4.407,4.407,0,0,0,.89,3.688,4.205,4.205,0,0,0,3.412,1.483,6.092,6.092,0,0,0,4-1.483,6.465,6.465,0,0,0,2.26-3.688L203.814,41.2h10.607l-2.956,15.427a19.1,19.1,0,0,1-6.782,11.02,18.334,18.334,0,0,1-11.954,4.45q-6.564,0-10.281-4.45t-2.673-11.02l7.781-41.2a19.216,19.216,0,0,1,6.825-11A18.384,18.384,0,0,1,206.336,0q6.563,0,10.28,4.429t2.631,11Z"/><path class="cls-1" d="M253.01.848a12.367,12.367,0,0,1,6.52,5.573,13.191,13.191,0,0,1,1.261,9.006l-7.781,41.2a18.878,18.878,0,0,1-6.7,10.935,20.4,20.4,0,0,1-6.607,3.645,17.377,17.377,0,0,1-5.478.89,14.015,14.015,0,0,1-5.086-.89,12.041,12.041,0,0,1-6.542-5.552,13.513,13.513,0,0,1-1.282-9.028l7.781-41.2A18.872,18.872,0,0,1,235.8,4.493,21.523,21.523,0,0,1,242.4.848,18.159,18.159,0,0,1,247.88,0,15.013,15.013,0,0,1,253.01.848ZM242.446,56.623l7.781-41.2a4.38,4.38,0,0,0-.87-3.644,4.271,4.271,0,0,0-3.433-1.484,6.116,6.116,0,0,0-3.978,1.484,6.409,6.409,0,0,0-2.282,3.644l-7.781,41.2a4.328,4.328,0,0,0,.869,3.645,4.217,4.217,0,0,0,3.434,1.526,6.09,6.09,0,0,0,4-1.483A6.472,6.472,0,0,0,242.446,56.623Z"/><path class="cls-1" d="M310.248,0q6.564,0,10.281,4.429t2.63,11L312.465,72.093H301.9L312.6,15.427a4.38,4.38,0,0,0-.87-3.644,4.269,4.269,0,0,0-3.433-1.484,6.12,6.12,0,0,0-3.978,1.484,6.409,6.409,0,0,0-2.282,3.644L291.338,72.093H280.774l10.694-56.666a4.38,4.38,0,0,0-.87-3.644,4.269,4.269,0,0,0-3.433-1.484,6.118,6.118,0,0,0-3.978,1.484,6.409,6.409,0,0,0-2.282,3.644L270.211,72.093H259.647l10.695-56.666a18.866,18.866,0,0,1,6.694-10.934A18.732,18.732,0,0,1,289.121,0a12.916,12.916,0,0,1,9.824,3.942A18.368,18.368,0,0,1,310.248,0Z"/><path class="cls-1" d="M332.708,72.093H322.144L335.8,0h10.563Z"/><path class="cls-1" d="M387.207,10.3H376.643L364.95,72.093H354.386L366.08,10.3H355.516L357.429,0h31.735Z"/><path class="cls-1" d="M428.577,10.3H418.013L406.32,72.093H395.757L407.45,10.3H396.886L398.8,0h31.734Z"/><path class="cls-1" d="M459.081,30.9l-1.956,10.3H444.866l-3.913,20.6h12.259l-1.956,10.3H428.433L442.084,0h22.822L462.95,10.3H450.69l-3.912,20.6Z"/><path class="cls-1" d="M493.453,30.9,491.5,41.2H479.238l-3.913,20.6h12.259l-1.956,10.3H462.805L476.456,0h22.822l-1.956,10.3h-12.26L481.15,30.9Z"/><path class="cls-1" d="M3.065,71.318A12.422,12.422,0,0,1,.282,60.42L8.1,20.981a18.715,18.715,0,0,1,7-10.774A19.371,19.371,0,0,1,27.36,5.847a14.042,14.042,0,0,1,10.69,4.4,12.318,12.318,0,0,1,2.739,10.9l-2.96,15.175H26.212l3.048-15.34a3.5,3.5,0,0,0-.8-3.125,3.969,3.969,0,0,0-3.048-1.234,5.845,5.845,0,0,0-3.689,1.3,5.6,5.6,0,0,0-2.1,3.229L11.855,60.585a3.518,3.518,0,0,0,.751,3.125A4.109,4.109,0,0,0,15.7,64.944a5.872,5.872,0,0,0,3.667-1.3,5.555,5.555,0,0,0,2.12-3.228l2.96-15.175H36.018l-3,15.34a18.714,18.714,0,0,1-7,10.774,19.423,19.423,0,0,1-12.3,4.36A13.988,13.988,0,0,1,3.065,71.318ZM15.72,10.906a17.743,17.743,0,0,0-6.648,10.24L1.254,60.585A11.512,11.512,0,0,0,3.816,70.743a13,13,0,0,0,9.9,4.071A18.445,18.445,0,0,0,25.394,70.66a17.739,17.739,0,0,0,6.649-10.24L34.87,46.15H25.284L22.413,60.585a6.4,6.4,0,0,1-2.43,3.742A6.789,6.789,0,0,1,15.7,65.849a5.1,5.1,0,0,1-3.843-1.563,4.467,4.467,0,0,1-.971-3.866L18.7,20.981a6.4,6.4,0,0,1,2.43-3.742,6.791,6.791,0,0,1,4.285-1.522,4.961,4.961,0,0,1,3.8,1.563,4.409,4.409,0,0,1,1.016,3.866L27.405,35.417H36.99l2.871-14.436.486.082-.486-.082A11.515,11.515,0,0,0,37.3,10.824,13.049,13.049,0,0,0,27.36,6.752,18.392,18.392,0,0,0,15.72,10.906Z"/><path class="cls-1" d="M48.152,74.855q-9.632-3.989-8.128-14.435l7.818-39.439a18.143,18.143,0,0,1,6.847-10.692,21.028,21.028,0,0,1,6.8-3.578,18.821,18.821,0,0,1,5.61-.864,15.972,15.972,0,0,1,5.3.864q9.628,3.99,8.128,14.435L72.712,60.585a18.148,18.148,0,0,1-6.847,10.692,21.018,21.018,0,0,1-6.8,3.578,18.821,18.821,0,0,1-5.61.864A15.957,15.957,0,0,1,48.152,74.855ZM61.8,7.575a19.977,19.977,0,0,0-6.449,3.413A17.594,17.594,0,0,0,48.77,21.146L41,60.585q-1.414,9.706,7.51,13.407a14.573,14.573,0,0,0,4.947.822,17.812,17.812,0,0,0,5.3-.822A19.98,19.98,0,0,0,65.2,70.578,17.6,17.6,0,0,0,71.784,60.42l7.775-39.439q1.413-9.705-7.51-13.406A14.549,14.549,0,0,0,67.1,6.752,17.782,17.782,0,0,0,61.8,7.575ZM51.553,64.245a4.3,4.3,0,0,1-.928-3.825L58.4,20.981a6.657,6.657,0,0,1,2.451-3.742,6.766,6.766,0,0,1,4.307-1.522A5.034,5.034,0,0,1,69,17.321a4.3,4.3,0,0,1,.928,3.825L62.155,60.585A6.663,6.663,0,0,1,59.7,64.327,6.76,6.76,0,0,1,55.4,65.849,5.031,5.031,0,0,1,51.553,64.245Zm9.916-46.328a5.6,5.6,0,0,0-2.1,3.229L51.553,60.585a3.558,3.558,0,0,0,.8,3.084A3.9,3.9,0,0,0,55.4,64.944a5.84,5.84,0,0,0,3.688-1.3,5.586,5.586,0,0,0,2.1-3.228L69,20.981A3.637,3.637,0,0,0,68.25,17.9a4.041,4.041,0,0,0-3.092-1.275A5.847,5.847,0,0,0,61.469,17.917Z"/><path class="cls-1" d="M99.864,75.719,97.788,46.15H95.977L90.146,75.719H78.573L92.4,5.847h16.212a15.452,15.452,0,0,1,5.345.9q9.628,3.99,8.128,14.476l-1.9,9.747a16.332,16.332,0,0,1-1.987,5.1,20.252,20.252,0,0,1-9.012,8.143l.8,11.309,1.458,20.193Zm10.514-.905-2.209-31.131.309-.124a19.869,19.869,0,0,0,8.879-7.9v-.041a14.928,14.928,0,0,0,1.855-4.812l1.944-9.747q1.369-9.745-7.554-13.488a14.689,14.689,0,0,0-4.991-.823H93.194L79.766,74.814h9.585l5.831-29.569h3.49l2.12,29.569ZM96.949,36.321l4.064-20.6h4.638a5.978,5.978,0,0,1,4.462,1.81,5.189,5.189,0,0,1,1.236,4.524v.061c0,.014-.015.035-.044.062l-1.546,7.814v.123a7.915,7.915,0,0,1-2.937,4.442,8.108,8.108,0,0,1-5.1,1.768Zm4.771-.9a7.1,7.1,0,0,0,4.461-1.584,6.989,6.989,0,0,0,2.606-3.886c0-.055.015-.083.045-.083v-.041l1.546-7.813v-.083a4.193,4.193,0,0,0-1.016-3.783,4.919,4.919,0,0,0-3.711-1.522h-3.8l-3.71,18.8Z"/><path class="cls-1" d="M120.126,75.719,133.952,5.847h23.853l-2.12,10.775h-12.28l-3.755,18.8h12.324L149.81,46.15H137.53l-3.71,18.794H146.1l-2.12,10.775Zm23.058-.905,1.767-8.965H132.627l4.108-20.6h12.28l1.767-8.924H138.5l4.064-20.6h12.28l1.767-8.965H134.747L121.274,74.814Z"/><path class="cls-1" d="M183.265,71.318a12.422,12.422,0,0,1-2.783-10.9L188.3,20.981a18.72,18.72,0,0,1,7-10.774,19.371,19.371,0,0,1,12.258-4.36,14.044,14.044,0,0,1,10.691,4.4,12.321,12.321,0,0,1,2.738,10.9l-2.96,15.175H206.412l3.048-15.34a3.5,3.5,0,0,0-.8-3.125,3.966,3.966,0,0,0-3.048-1.234,5.845,5.845,0,0,0-3.689,1.3,5.6,5.6,0,0,0-2.1,3.229l-7.775,39.439a3.521,3.521,0,0,0,.751,3.125,4.11,4.11,0,0,0,3.093,1.234,5.87,5.87,0,0,0,3.666-1.3,5.555,5.555,0,0,0,2.12-3.228l2.96-15.175h11.573l-3,15.34a18.72,18.72,0,0,1-7,10.774,19.423,19.423,0,0,1-12.3,4.36A13.988,13.988,0,0,1,183.265,71.318Zm12.656-60.412a17.739,17.739,0,0,0-6.648,10.24l-7.819,39.439a11.518,11.518,0,0,0,2.562,10.158,13,13,0,0,0,9.9,4.071,18.445,18.445,0,0,0,11.683-4.154,17.734,17.734,0,0,0,6.649-10.24l2.827-14.27h-9.586l-2.871,14.435a6.4,6.4,0,0,1-2.43,3.742,6.789,6.789,0,0,1-4.284,1.522,5.1,5.1,0,0,1-3.844-1.563,4.471,4.471,0,0,1-.971-3.866L198.9,20.981a6.4,6.4,0,0,1,2.429-3.742,6.793,6.793,0,0,1,4.285-1.522,4.961,4.961,0,0,1,3.8,1.563,4.4,4.4,0,0,1,1.016,3.866l-2.827,14.271h9.585l2.871-14.436.487.082-.487-.082A11.515,11.515,0,0,0,217.5,10.824a13.053,13.053,0,0,0-9.94-4.072A18.389,18.389,0,0,0,195.921,10.906Z"/><path class="cls-1" d="M228.351,74.855q-9.631-3.989-8.128-14.435l7.819-39.439a18.141,18.141,0,0,1,6.846-10.692,21.048,21.048,0,0,1,6.8-3.578,18.833,18.833,0,0,1,5.611-.864,15.966,15.966,0,0,1,5.3.864q9.63,3.99,8.128,14.435l-7.818,39.439a18.145,18.145,0,0,1-6.848,10.692,21,21,0,0,1-6.8,3.578,18.815,18.815,0,0,1-5.609.864A15.963,15.963,0,0,1,228.351,74.855ZM242,7.575a19.967,19.967,0,0,0-6.449,3.413,17.59,17.59,0,0,0-6.583,10.158L221.2,60.585q-1.413,9.706,7.51,13.407a14.569,14.569,0,0,0,4.947.822,17.812,17.812,0,0,0,5.3-.822,19.99,19.99,0,0,0,6.449-3.414,17.59,17.59,0,0,0,6.582-10.158l7.775-39.439q1.411-9.705-7.51-13.406a14.553,14.553,0,0,0-4.947-.823A17.777,17.777,0,0,0,242,7.575Zm-10.248,56.67a4.3,4.3,0,0,1-.928-3.825L238.6,20.981a6.663,6.663,0,0,1,2.452-3.742,6.764,6.764,0,0,1,4.307-1.522,5.034,5.034,0,0,1,3.843,1.6,4.307,4.307,0,0,1,.928,3.825l-7.775,39.439a6.658,6.658,0,0,1-2.452,3.742,6.757,6.757,0,0,1-4.307,1.522A5.03,5.03,0,0,1,231.753,64.245Zm9.917-46.328a5.593,5.593,0,0,0-2.1,3.229l-7.818,39.439a3.558,3.558,0,0,0,.8,3.084,3.9,3.9,0,0,0,3.047,1.275,5.843,5.843,0,0,0,3.689-1.3,5.6,5.6,0,0,0,2.1-3.228L249.2,20.981a3.637,3.637,0,0,0-.751-3.084,4.041,4.041,0,0,0-3.092-1.275A5.843,5.843,0,0,0,241.67,17.917Z"/><path class="cls-1" d="M301.092,75.719l10.822-54.738a3.461,3.461,0,0,0-.751-3.084,4.042,4.042,0,0,0-3.093-1.275,5.845,5.845,0,0,0-3.688,1.3,5.6,5.6,0,0,0-2.1,3.229L291.506,75.719H279.932l10.823-54.738A3.461,3.461,0,0,0,290,17.9a4.043,4.043,0,0,0-3.092-1.275,5.843,5.843,0,0,0-3.689,1.3,5.6,5.6,0,0,0-2.1,3.229L270.346,75.719H258.773L269.6,20.981a18.078,18.078,0,0,1,6.892-10.692,20.075,20.075,0,0,1,12.368-4.442,14.357,14.357,0,0,1,9.895,3.619,20.053,20.053,0,0,1,11.264-3.619,14.042,14.042,0,0,1,10.69,4.4,12.318,12.318,0,0,1,2.739,10.9L312.665,75.719Zm10.733-.905,10.69-53.833a11.7,11.7,0,0,0-2.562-10.157,13.049,13.049,0,0,0-9.939-4.072,19.1,19.1,0,0,0-11,3.66l-.353.288-.31-.329a13.325,13.325,0,0,0-9.5-3.619,19.1,19.1,0,0,0-11.75,4.236,17.594,17.594,0,0,0-6.582,10.158l-10.6,53.668h9.586l10.645-53.833a6.625,6.625,0,0,1,2.474-3.742,6.793,6.793,0,0,1,4.285-1.522,5.035,5.035,0,0,1,3.843,1.6,4.412,4.412,0,0,1,.971,3.825L281.081,74.814h9.585l10.646-53.833a6.62,6.62,0,0,1,2.474-3.742,6.792,6.792,0,0,1,4.284-1.522,5.036,5.036,0,0,1,3.844,1.6,4.412,4.412,0,0,1,.971,3.825L302.24,74.814Z"/><path class="cls-1" d="M321.176,75.719,335,5.847h11.573L332.749,75.719Zm10.734-.905L345.383,6.752H335.8L322.324,74.814Z"/><path class="cls-1" d="M353.408,75.719l11.706-59.1h-10.6l2.121-10.775h32.732l-2.12,10.775H376.687l-11.706,59.1Zm10.734-.905,11.706-59.1h10.6l1.767-8.965H357.471l-1.81,8.965h10.6l-11.706,59.1Z"/><path class="cls-1" d="M394.74,75.719l11.706-59.1h-10.6l2.121-10.775H430.7l-2.12,10.775H418.019l-11.706,59.1Zm10.734-.905,11.706-59.1h10.6l1.767-8.965H398.8l-1.81,8.965h10.6l-11.706,59.1Z"/><path class="cls-1" d="M427.237,75.719,441.063,5.847h23.854L462.8,16.622H450.516l-3.755,18.8h12.325L456.922,46.15H444.641L440.93,64.944h12.281l-2.12,10.775Zm23.059-.905,1.766-8.965H439.738l4.108-20.6h12.281l1.766-8.924h-12.28l4.064-20.6h12.28l1.767-8.965H441.858L428.385,74.814Z"/><path class="cls-1" d="M461.457,75.719,475.283,5.847h23.853l-2.12,10.775h-12.28l-3.755,18.8h12.324L491.141,46.15h-12.28L475.15,64.944h12.28l-2.12,10.775Zm23.058-.905,1.767-8.965H473.958l4.108-20.6h12.28l1.767-8.924h-12.28l4.064-20.6h12.28l1.767-8.965H476.078L462.605,74.814Z"/><line class="cls-2" x1="493.134" y1="88.89" x2="2" y2="91.878"/></g></g></svg>