<?xml version="1.0" encoding="UTF-8" standalone="no"?>
<svg
   xmlns:dc="http://purl.org/dc/elements/1.1/"
   xmlns:cc="http://creativecommons.org/ns#"
   xmlns:rdf="http://www.w3.org/1999/02/22-rdf-syntax-ns#"
   xmlns:svg="http://www.w3.org/2000/svg"
   xmlns="http://www.w3.org/2000/svg"
   xmlns:sodipodi="http://sodipodi.sourceforge.net/DTD/sodipodi-0.dtd"
   xmlns:inkscape="http://www.inkscape.org/namespaces/inkscape"
   inkscape:version="1.0 (4035a4fb49, 2020-05-01)"
   sodipodi:docname="fb.svg"
   xml:space="preserve"
   width="128px"
   viewBox="0 0 128 128"
   version="1.1"
   id="Layer_1"
   height="128px"
   enable-background="new 0 0 128 128"><metadata
     id="metadata17"><rdf:RDF><cc:Work
         rdf:about=""><dc:format>image/svg+xml</dc:format><dc:type
           rdf:resource="http://purl.org/dc/dcmitype/StillImage" /></cc:Work></rdf:RDF></metadata><defs
     id="defs15" /><sodipodi:namedview
     inkscape:current-layer="Layer_1"
     inkscape:window-maximized="1"
     inkscape:window-y="-9"
     inkscape:window-x="-9"
     inkscape:cy="93.910618"
     inkscape:cx="-5.8359879"
     inkscape:zoom="4.8930526"
     showgrid="false"
     id="namedview13"
     inkscape:window-height="1051"
     inkscape:window-width="1920"
     inkscape:pageshadow="2"
     inkscape:pageopacity="0"
     guidetolerance="10"
     gridtolerance="10"
     objecttolerance="10"
     borderopacity="1"
     bordercolor="#666666"
     pagecolor="#ffffff" /><path
     d="M 63.570312 0.095703125 A 63.866302 63.866302 0 0 0 -0.10546875 63.960938 A 63.866302 63.866302 0 0 0 63.761719 127.82812 A 63.866302 63.866302 0 0 0 127.62695 63.960938 A 63.866302 63.866302 0 0 0 63.761719 0.095703125 A 63.866302 63.866302 0 0 0 63.570312 0.095703125 z M 76.207031 16.128906 C 76.850961 16.1223 77.567247 16.130912 78.394531 16.150391 C 82.089674 16.237391 84.663707 16.510362 89.154297 17.294922 L 90.738281 17.572266 L 90.738281 25.953125 L 90.738281 34.333984 L 85.148438 34.335938 C 77.614191 34.337438 76.260117 34.472119 74.25 35.419922 C 72.582975 36.205951 71.5048 37.625778 70.943359 39.775391 C 70.670049 40.821823 70.658795 41.138774 70.609375 48.583984 L 70.556641 56.306641 L 80.265625 56.306641 L 89.974609 56.306641 L 89.900391 56.726562 C 89.859891 56.957588 89.274299 60.548594 88.599609 64.707031 C 87.924909 68.865467 87.340801 72.427565 87.300781 72.623047 L 87.226562 72.978516 L 78.902344 72.978516 L 70.576172 72.978516 L 70.576172 96.294922 L 70.576172 119.61133 L 69.896484 119.68359 C 69.046883 119.77489 60.658231 119.88358 59.783203 119.81445 L 59.783203 119.8125 C 58.425114 119.70521 54.420211 119.24078 54.230469 119.16797 C 54.052575 119.09967 54.03125 116.66542 54.03125 96.035156 L 54.03125 72.978516 L 45.630859 72.978516 L 37.230469 72.978516 L 37.230469 64.642578 L 37.230469 56.306641 L 45.623047 56.306641 L 54.017578 56.306641 L 54.064453 46.644531 C 54.110113 37.33301 54.122617 36.926252 54.400391 35.369141 C 55.430591 29.594136 57.405 25.524834 60.798828 22.179688 C 63.600187 19.418512 67.187723 17.537341 71.351562 16.648438 C 72.997822 16.296991 74.275241 16.148725 76.207031 16.128906 z "
     style="opacity:1;fill:#0000ff;stroke:#262626;stroke-width:0"
     id="path849" /></svg>
