<?xml version="1.0" encoding="UTF-8" standalone="no"?>
<svg
   xmlns:dc="http://purl.org/dc/elements/1.1/"
   xmlns:cc="http://creativecommons.org/ns#"
   xmlns:rdf="http://www.w3.org/1999/02/22-rdf-syntax-ns#"
   xmlns:svg="http://www.w3.org/2000/svg"
   xmlns="http://www.w3.org/2000/svg"
   xmlns:sodipodi="http://sodipodi.sourceforge.net/DTD/sodipodi-0.dtd"
   xmlns:inkscape="http://www.inkscape.org/namespaces/inkscape"
   inkscape:version="1.0 (4035a4fb49, 2020-05-01)"
   sodipodi:docname="insta.svg"
   xml:space="preserve"
   width="297"
   viewBox="0 0 297 297"
   version="1.1"
   id="Layer_1"
   height="297"
   enable-background="new 0 0 128 128"><metadata
     id="metadata30"><rdf:RDF><cc:Work
         rdf:about=""><dc:format>image/svg+xml</dc:format><dc:type
           rdf:resource="http://purl.org/dc/dcmitype/StillImage" /><dc:title></dc:title></cc:Work></rdf:RDF></metadata><defs
     id="defs28" /><sodipodi:namedview
     inkscape:current-layer="Layer_1"
     inkscape:window-maximized="1"
     inkscape:window-y="-9"
     inkscape:window-x="-9"
     inkscape:cy="306.46681"
     inkscape:cx="146.46687"
     inkscape:zoom="3.0119353"
     showgrid="false"
     id="namedview26"
     inkscape:window-height="1051"
     inkscape:window-width="1920"
     inkscape:pageshadow="2"
     inkscape:pageopacity="0"
     guidetolerance="10"
     gridtolerance="10"
     objecttolerance="10"
     borderopacity="1"
     bordercolor="#666666"
     pagecolor="#ffffff" /><g
     transform="scale(2.3182632)"
     id="g9"><linearGradient
       y2="621.42963"
       y1="516.56927"
       x2="-493.28751"
       x1="-566.71143"
       id="SVGID_1_"
       gradientUnits="userSpaceOnUse"
       gradientTransform="matrix(1,0,0,-1,594,633)"><stop
         id="stop2"
         style="stop-color:#FFB900"
         offset="0" /><stop
         id="stop4"
         style="stop-color:#9100EB"
         offset="1" /></linearGradient><circle
       style="fill:url(#SVGID_1_)"
       id="circle7"
       r="64"
       fill="url(#SVGID_1_)"
       cy="64"
       cx="64" /></g><g
     transform="scale(2.3182632)"
     id="g23"><g
       id="g13"><path
         id="path11"
         fill="#ffffff"
         d="M 82.333,104 H 45.667 C 33.72,104 24,94.281 24,82.333 V 45.667 C 24,33.719 33.72,24 45.667,24 H 82.333 C 94.281,24 104,33.719 104,45.667 V 82.334 C 104,94.281 94.281,104 82.333,104 Z M 45.667,30.667 c -8.271,0 -15,6.729 -15,15 v 36.667 c 0,8.271 6.729,15 15,15 h 36.666 c 8.271,0 15,-6.729 15,-15 V 45.667 c 0,-8.271 -6.729,-15 -15,-15 z" /></g><g
       id="g17"><path
         id="path15"
         fill="#ffffff"
         d="M 64,84 C 52.972,84 44,75.027 44,64 44,52.971 52.972,44 64,44 c 11.028,0 20,8.971 20,20 0,11.027 -8.972,20 -20,20 z m 0,-33.333 c -7.352,0 -13.333,5.981 -13.333,13.333 0,7.353 5.981,13.333 13.333,13.333 7.352,0 13.333,-5.98 13.333,-13.333 0,-7.352 -5.98,-13.333 -13.333,-13.333 z" /></g><g
       id="g21"><circle
         id="circle19"
         r="4.5830002"
         fill="#ffffff"
         cy="42.75"
         cx="85.25" /></g></g></svg>
