<?xml version="1.0" encoding="UTF-8" standalone="no"?>
<svg
   xmlns:dc="http://purl.org/dc/elements/1.1/"
   xmlns:cc="http://creativecommons.org/ns#"
   xmlns:rdf="http://www.w3.org/1999/02/22-rdf-syntax-ns#"
   xmlns:svg="http://www.w3.org/2000/svg"
   xmlns="http://www.w3.org/2000/svg"
   xmlns:sodipodi="http://sodipodi.sourceforge.net/DTD/sodipodi-0.dtd"
   xmlns:inkscape="http://www.inkscape.org/namespaces/inkscape"
   width="297mm"
   height="297mm"
   viewBox="0 0 297 297"
   version="1.1"
   id="svg8"
   inkscape:version="1.0 (4035a4fb49, 2020-05-01)"
   sodipodi:docname="lnktree.svg">
  <defs
     id="defs2" />
  <sodipodi:namedview
     id="base"
     pagecolor="#ffffff"
     bordercolor="#666666"
     borderopacity="1.0"
     inkscape:pageopacity="0.0"
     inkscape:pageshadow="2"
     inkscape:zoom="0.51841139"
     inkscape:cx="472.51048"
     inkscape:cy="543.8818"
     inkscape:document-units="mm"
     inkscape:current-layer="layer1"
     inkscape:document-rotation="0"
     showgrid="false"
     inkscape:window-width="1920"
     inkscape:window-height="1051"
     inkscape:window-x="-9"
     inkscape:window-y="-9"
     inkscape:window-maximized="1" />
  <metadata
     id="metadata5">
    <rdf:RDF>
      <cc:Work
         rdf:about="">
        <dc:format>image/svg+xml</dc:format>
        <dc:type
           rdf:resource="http://purl.org/dc/dcmitype/StillImage" />
        <dc:title />
      </cc:Work>
    </rdf:RDF>
  </metadata>
  <g
     inkscape:label="Layer 1"
     inkscape:groupmode="layer"
     id="layer1">
    <path
       id="path839"
       style="fill:#0000ff;stroke:#262626;stroke-width:0;fill-opacity:1"
       d="M 563.07812,5.8007812 A 556.06148,556.06148 0 0 0 7.0175781,561.86328 556.06148,556.06148 0 0 0 563.07812,1117.9238 556.06148,556.06148 0 0 0 1119.1406,561.86328 556.06148,556.06148 0 0 0 563.07812,5.8007812 Z M 410.58008,164.03125 a 41.361623,41.361623 0 0 1 36.41015,21.31055 L 560.12305,402.24805 409.24023,675.74023 c -3.10752,6.33086 -3.10742,12.58417 -3.10742,18.875 3.10753,20.0789 20.50663,34.83632 40.85742,34.56446 h 50.25586 v 185.48633 c 0,18.87499 -15.69159,34.5664 -34.5664,34.5664 H 355.80078 A 34.87581,34.87581 0 0 1 321.27539,914.62695 V 729.21875 H 138.89453 c -28.27353,0 -47.147705,-28.31204 -34.56445,-53.47852 L 374.63672,185.3418 a 41.361623,41.361623 0 0 1 35.94336,-21.31055 z m 311.64844,0.0352 a 41.361623,41.361623 0 0 1 35.96484,21.27539 L 1028.5,675.74023 h -0.039 c 12.5833,25.16648 -6.2132,53.47852 -34.56442,53.47852 H 814.7793 v 185.44727 a 34.953484,34.953484 0 0 1 -34.64258,34.5664 H 666.96484 c -19.03026,-0.11641 -34.37554,-15.53614 -34.5664,-34.5664 V 729.17969 h 50.33398 c 20.31183,0.27186 37.74993,-14.48556 40.85742,-34.56446 0,-6.25341 -8.2e-4,-12.54499 -3.14648,-18.91406 L 569.56055,402.28711 685.87891,185.3418 a 41.361623,41.361623 0 0 1 36.34961,-21.27539 z"
       transform="scale(0.26458333)" />
  </g>
</svg>
